<?xml version="1.0" encoding="UTF-8" standalone="no"?>
<!-- Created with Inkscape (http://www.inkscape.org/) -->

<svg
   width="95.612076mm"
   height="137.57166mm"
   viewBox="0 0 95.612054 137.57166"
   version="1.1"
   id="svg1375"
   xmlns="http://www.w3.org/2000/svg"
   xmlns:svg="http://www.w3.org/2000/svg">
  <defs
     id="defs1372">
    <marker
       style="overflow:visible"
       id="Sketch-5-1-1-3-1-7-7-60-65"
       refX="1"
       refY="0"
       orient="auto-start-reverse"
       markerWidth="7.5655537"
       markerHeight="6.7364779"
       viewBox="0 0 7.5655539 6.7364778"
       preserveAspectRatio="xMidYMid">
      <path
         style="fill:none;stroke:context-stroke;stroke-width:0.4;stroke-linecap:round"
         d="m -4.5421538,-3.2452189 3.83900644,2.60235235 0.56348102,0.59255887 L -2.4921466,1.1808717 -4.4106004,2.139946 -4.5795251,2.8245356 -4.703996,3.0734773 -4.3128019,2.6822832 -3.9749524,2.3088707 0.66603196,-0.12720162 0.02589622,-0.32279868 -1.7613224,-0.60366199 -3.580874,-2.0472634 -4.3186004,-2.392437 l -1.2937699,-0.2549423 2.1825172,0.042166 0.6996091,1.0554873 1.4406512,0.1145833 1.20879971,0.91674665 1.53333299,0.47138389 -1.85995289,1.23785256 -2.03832621,0.9224332 -1.5469949,0.9779853"
         id="path22096-7-2-8-8-6-5-8-2-6" />
    </marker>
    <marker
       style="overflow:visible"
       id="Sketch-5-1-1-3-1-7-7-60-65_Fnone_S-9d00ec"
       refX="1"
       refY="0"
       orient="auto-start-reverse"
       markerWidth="7.5655537"
       markerHeight="6.7364779"
       viewBox="0 0 7.5655539 6.7364778"
       preserveAspectRatio="xMidYMid">
      <path
         style="fill:none;stroke:#9d00ec;stroke-width:0.4;stroke-linecap:round"
         d="m -4.5421538,-3.2452189 3.83900644,2.60235235 0.56348102,0.59255887 L -2.4921466,1.1808717 -4.4106004,2.139946 -4.5795251,2.8245356 -4.703996,3.0734773 -4.3128019,2.6822832 -3.9749524,2.3088707 0.66603196,-0.12720162 0.02589622,-0.32279868 -1.7613224,-0.60366199 -3.580874,-2.0472634 -4.3186004,-2.392437 l -1.2937699,-0.2549423 2.1825172,0.042166 0.6996091,1.0554873 1.4406512,0.1145833 1.20879971,0.91674665 1.53333299,0.47138389 -1.85995289,1.23785256 -2.03832621,0.9224332 -1.5469949,0.9779853"
         id="path5786" />
    </marker>
    <marker
       style="overflow:visible"
       id="Sketch-5-1-1-3-1-7-7-60-6-8"
       refX="1"
       refY="0"
       orient="auto-start-reverse"
       markerWidth="7.5655537"
       markerHeight="6.7364779"
       viewBox="0 0 7.5655539 6.7364778"
       preserveAspectRatio="xMidYMid">
      <path
         style="fill:none;stroke:context-stroke;stroke-width:0.4;stroke-linecap:round"
         d="m -4.5421538,-3.2452189 3.83900644,2.60235235 0.56348102,0.59255887 L -2.4921466,1.1808717 -4.4106004,2.139946 -4.5795251,2.8245356 -4.703996,3.0734773 -4.3128019,2.6822832 -3.9749524,2.3088707 0.66603196,-0.12720162 0.02589622,-0.32279868 -1.7613224,-0.60366199 -3.580874,-2.0472634 -4.3186004,-2.392437 l -1.2937699,-0.2549423 2.1825172,0.042166 0.6996091,1.0554873 1.4406512,0.1145833 1.20879971,0.91674665 1.53333299,0.47138389 -1.85995289,1.23785256 -2.03832621,0.9224332 -1.5469949,0.9779853"
         id="path22096-7-2-8-8-6-5-8-2-2-4" />
    </marker>
    <marker
       style="overflow:visible"
       id="Sketch-5-1-1-3-1-7-7-60-6-8_Fnone_S-9d00ec"
       refX="1"
       refY="0"
       orient="auto-start-reverse"
       markerWidth="7.5655537"
       markerHeight="6.7364779"
       viewBox="0 0 7.5655539 6.7364778"
       preserveAspectRatio="xMidYMid">
      <path
         style="fill:none;stroke:#9d00ec;stroke-width:0.4;stroke-linecap:round"
         d="m -4.5421538,-3.2452189 3.83900644,2.60235235 0.56348102,0.59255887 L -2.4921466,1.1808717 -4.4106004,2.139946 -4.5795251,2.8245356 -4.703996,3.0734773 -4.3128019,2.6822832 -3.9749524,2.3088707 0.66603196,-0.12720162 0.02589622,-0.32279868 -1.7613224,-0.60366199 -3.580874,-2.0472634 -4.3186004,-2.392437 l -1.2937699,-0.2549423 2.1825172,0.042166 0.6996091,1.0554873 1.4406512,0.1145833 1.20879971,0.91674665 1.53333299,0.47138389 -1.85995289,1.23785256 -2.03832621,0.9224332 -1.5469949,0.9779853"
         id="path5789" />
    </marker>
    <marker
       style="overflow:visible"
       id="Sketch-5-1-1-3-1-7-7-60-6-1-88"
       refX="1"
       refY="0"
       orient="auto-start-reverse"
       markerWidth="7.5655537"
       markerHeight="6.7364779"
       viewBox="0 0 7.5655539 6.7364778"
       preserveAspectRatio="xMidYMid">
      <path
         style="fill:none;stroke:context-stroke;stroke-width:0.4;stroke-linecap:round"
         d="m -4.5421538,-3.2452189 3.83900644,2.60235235 0.56348102,0.59255887 L -2.4921466,1.1808717 -4.4106004,2.139946 -4.5795251,2.8245356 -4.703996,3.0734773 -4.3128019,2.6822832 -3.9749524,2.3088707 0.66603196,-0.12720162 0.02589622,-0.32279868 -1.7613224,-0.60366199 -3.580874,-2.0472634 -4.3186004,-2.392437 l -1.2937699,-0.2549423 2.1825172,0.042166 0.6996091,1.0554873 1.4406512,0.1145833 1.20879971,0.91674665 1.53333299,0.47138389 -1.85995289,1.23785256 -2.03832621,0.9224332 -1.5469949,0.9779853"
         id="path22096-7-2-8-8-6-5-8-2-2-5-3" />
    </marker>
    <marker
       style="overflow:visible"
       id="Sketch-5-1-1-3-1-7-7-60-6-1-88_Fnone_S-9d00ec"
       refX="1"
       refY="0"
       orient="auto-start-reverse"
       markerWidth="7.5655537"
       markerHeight="6.7364779"
       viewBox="0 0 7.5655539 6.7364778"
       preserveAspectRatio="xMidYMid">
      <path
         style="fill:none;stroke:#9d00ec;stroke-width:0.4;stroke-linecap:round"
         d="m -4.5421538,-3.2452189 3.83900644,2.60235235 0.56348102,0.59255887 L -2.4921466,1.1808717 -4.4106004,2.139946 -4.5795251,2.8245356 -4.703996,3.0734773 -4.3128019,2.6822832 -3.9749524,2.3088707 0.66603196,-0.12720162 0.02589622,-0.32279868 -1.7613224,-0.60366199 -3.580874,-2.0472634 -4.3186004,-2.392437 l -1.2937699,-0.2549423 2.1825172,0.042166 0.6996091,1.0554873 1.4406512,0.1145833 1.20879971,0.91674665 1.53333299,0.47138389 -1.85995289,1.23785256 -2.03832621,0.9224332 -1.5469949,0.9779853"
         id="path5792" />
    </marker>
    <marker
       style="overflow:visible"
       id="Sketch-5-1-1-3-1-7-7-60-6-1-88-8"
       refX="1"
       refY="0"
       orient="auto-start-reverse"
       markerWidth="7.5655537"
       markerHeight="6.7364779"
       viewBox="0 0 7.5655539 6.7364778"
       preserveAspectRatio="xMidYMid">
      <path
         style="fill:none;stroke:context-stroke;stroke-width:0.4;stroke-linecap:round"
         d="m -4.5421538,-3.2452189 3.83900644,2.60235235 0.56348102,0.59255887 L -2.4921466,1.1808717 -4.4106004,2.139946 -4.5795251,2.8245356 -4.703996,3.0734773 -4.3128019,2.6822832 -3.9749524,2.3088707 0.66603196,-0.12720162 0.02589622,-0.32279868 -1.7613224,-0.60366199 -3.580874,-2.0472634 -4.3186004,-2.392437 l -1.2937699,-0.2549423 2.1825172,0.042166 0.6996091,1.0554873 1.4406512,0.1145833 1.20879971,0.91674665 1.53333299,0.47138389 -1.85995289,1.23785256 -2.03832621,0.9224332 -1.5469949,0.9779853"
         id="path22096-7-2-8-8-6-5-8-2-2-5-3-1" />
    </marker>
    <marker
       style="overflow:visible"
       id="Sketch-5-1-1-3-1-7-7-60-6-1-88-8_Fnone_S-9d00ec"
       refX="1"
       refY="0"
       orient="auto-start-reverse"
       markerWidth="7.5655537"
       markerHeight="6.7364779"
       viewBox="0 0 7.5655539 6.7364778"
       preserveAspectRatio="xMidYMid">
      <path
         style="fill:none;stroke:#9d00ec;stroke-width:0.4;stroke-linecap:round"
         d="m -4.5421538,-3.2452189 3.83900644,2.60235235 0.56348102,0.59255887 L -2.4921466,1.1808717 -4.4106004,2.139946 -4.5795251,2.8245356 -4.703996,3.0734773 -4.3128019,2.6822832 -3.9749524,2.3088707 0.66603196,-0.12720162 0.02589622,-0.32279868 -1.7613224,-0.60366199 -3.580874,-2.0472634 -4.3186004,-2.392437 l -1.2937699,-0.2549423 2.1825172,0.042166 0.6996091,1.0554873 1.4406512,0.1145833 1.20879971,0.91674665 1.53333299,0.47138389 -1.85995289,1.23785256 -2.03832621,0.9224332 -1.5469949,0.9779853"
         id="path5795" />
    </marker>
    <marker
       style="overflow:visible"
       id="Sketch-5-1-1-3-1-7-7-60-6-1-88-8-7"
       refX="1"
       refY="0"
       orient="auto-start-reverse"
       markerWidth="7.5655537"
       markerHeight="6.7364779"
       viewBox="0 0 7.5655539 6.7364778"
       preserveAspectRatio="xMidYMid">
      <path
         style="fill:none;stroke:context-stroke;stroke-width:0.4;stroke-linecap:round"
         d="m -4.5421538,-3.2452189 3.83900644,2.60235235 0.56348102,0.59255887 L -2.4921466,1.1808717 -4.4106004,2.139946 -4.5795251,2.8245356 -4.703996,3.0734773 -4.3128019,2.6822832 -3.9749524,2.3088707 0.66603196,-0.12720162 0.02589622,-0.32279868 -1.7613224,-0.60366199 -3.580874,-2.0472634 -4.3186004,-2.392437 l -1.2937699,-0.2549423 2.1825172,0.042166 0.6996091,1.0554873 1.4406512,0.1145833 1.20879971,0.91674665 1.53333299,0.47138389 -1.85995289,1.23785256 -2.03832621,0.9224332 -1.5469949,0.9779853"
         id="path22096-7-2-8-8-6-5-8-2-2-5-3-1-6" />
    </marker>
    <marker
       style="overflow:visible"
       id="Sketch-5-1-1-3-1-7-7-60-6-1-88-8-7_Fnone_S-9d00ec"
       refX="1"
       refY="0"
       orient="auto-start-reverse"
       markerWidth="7.5655537"
       markerHeight="6.7364779"
       viewBox="0 0 7.5655539 6.7364778"
       preserveAspectRatio="xMidYMid">
      <path
         style="fill:none;stroke:#9d00ec;stroke-width:0.4;stroke-linecap:round"
         d="m -4.5421538,-3.2452189 3.83900644,2.60235235 0.56348102,0.59255887 L -2.4921466,1.1808717 -4.4106004,2.139946 -4.5795251,2.8245356 -4.703996,3.0734773 -4.3128019,2.6822832 -3.9749524,2.3088707 0.66603196,-0.12720162 0.02589622,-0.32279868 -1.7613224,-0.60366199 -3.580874,-2.0472634 -4.3186004,-2.392437 l -1.2937699,-0.2549423 2.1825172,0.042166 0.6996091,1.0554873 1.4406512,0.1145833 1.20879971,0.91674665 1.53333299,0.47138389 -1.85995289,1.23785256 -2.03832621,0.9224332 -1.5469949,0.9779853"
         id="path5798" />
    </marker>
    <marker
       style="overflow:visible"
       id="Sketch-5-1-1-3-1-7-7-60-6-1-8-8"
       refX="1"
       refY="0"
       orient="auto-start-reverse"
       markerWidth="7.5655537"
       markerHeight="6.7364779"
       viewBox="0 0 7.5655539 6.7364778"
       preserveAspectRatio="xMidYMid">
      <path
         style="fill:none;stroke:context-stroke;stroke-width:0.4;stroke-linecap:round"
         d="m -4.5421538,-3.2452189 3.83900644,2.60235235 0.56348102,0.59255887 L -2.4921466,1.1808717 -4.4106004,2.139946 -4.5795251,2.8245356 -4.703996,3.0734773 -4.3128019,2.6822832 -3.9749524,2.3088707 0.66603196,-0.12720162 0.02589622,-0.32279868 -1.7613224,-0.60366199 -3.580874,-2.0472634 -4.3186004,-2.392437 l -1.2937699,-0.2549423 2.1825172,0.042166 0.6996091,1.0554873 1.4406512,0.1145833 1.20879971,0.91674665 1.53333299,0.47138389 -1.85995289,1.23785256 -2.03832621,0.9224332 -1.5469949,0.9779853"
         id="path22096-7-2-8-8-6-5-8-2-2-5-4-7" />
    </marker>
    <marker
       style="overflow:visible"
       id="Sketch-5-1-1-3-1-7-7-60-6-1-8-8_Fnone_S-9d00ec"
       refX="1"
       refY="0"
       orient="auto-start-reverse"
       markerWidth="7.5655537"
       markerHeight="6.7364779"
       viewBox="0 0 7.5655539 6.7364778"
       preserveAspectRatio="xMidYMid">
      <path
         style="fill:none;stroke:#9d00ec;stroke-width:0.4;stroke-linecap:round"
         d="m -4.5421538,-3.2452189 3.83900644,2.60235235 0.56348102,0.59255887 L -2.4921466,1.1808717 -4.4106004,2.139946 -4.5795251,2.8245356 -4.703996,3.0734773 -4.3128019,2.6822832 -3.9749524,2.3088707 0.66603196,-0.12720162 0.02589622,-0.32279868 -1.7613224,-0.60366199 -3.580874,-2.0472634 -4.3186004,-2.392437 l -1.2937699,-0.2549423 2.1825172,0.042166 0.6996091,1.0554873 1.4406512,0.1145833 1.20879971,0.91674665 1.53333299,0.47138389 -1.85995289,1.23785256 -2.03832621,0.9224332 -1.5469949,0.9779853"
         id="path5801" />
    </marker>
  </defs>
  <g
     id="layer1"
     transform="translate(-1020.0164,-402.06658)">
    <path
       style="fill:none;stroke:#9d00ec;stroke-width:0.7;stroke-linecap:butt;stroke-linejoin:miter;stroke-dasharray:0.7, 0.7;stroke-dashoffset:0;stroke-opacity:1;marker-end:url(#Sketch-5-1-1-3-1-7-7-60-65_Fnone_S-9d00ec)"
       d="m 1069.2038,532.18368 c 32.3408,-2.0263 39.107,-13.76922 37.5581,-38.68826"
       id="path47519-3-5-8-5-0-3-7-9-5" />
    <path
       style="fill:none;stroke:#9d00ec;stroke-width:0.7;stroke-linecap:butt;stroke-linejoin:miter;stroke-dasharray:none;stroke-opacity:1;marker-end:url(#Sketch-5-1-1-3-1-7-7-60-6-8_Fnone_S-9d00ec)"
       d="m 1062.2493,525.22919 c 1.4111,-15.95811 0.3118,-29.38988 -15.6907,-33.23172"
       id="path47519-3-5-8-5-0-3-7-9-7-2" />
    <path
       style="fill:none;stroke:#9d00ec;stroke-width:0.7;stroke-linecap:butt;stroke-linejoin:miter;stroke-dasharray:none;stroke-opacity:1;marker-end:url(#Sketch-5-1-1-3-1-7-7-60-6-1-88_Fnone_S-9d00ec)"
       d="m 1046.3488,484.44757 c 5.2828,-6.799 7.733,-10.94777 6.3431,-24.82273"
       id="path47519-3-5-8-5-0-3-7-9-7-8-4" />
    <path
       style="fill:none;stroke:#9d00ec;stroke-width:0.7;stroke-linecap:butt;stroke-linejoin:miter;stroke-dasharray:none;stroke-opacity:1;marker-end:url(#Sketch-5-1-1-3-1-7-7-60-6-1-88-8_Fnone_S-9d00ec)"
       d="m 1052.7862,445.4958 c 2.5472,-7.12437 5.173,-16.0269 12.6852,-21.31302"
       id="path47519-3-5-8-5-0-3-7-9-7-8-4-0" />
    <path
       style="fill:none;stroke:#9d00ec;stroke-width:0.7;stroke-linecap:butt;stroke-linejoin:miter;stroke-dasharray:none;stroke-opacity:1;marker-end:url(#Sketch-5-1-1-3-1-7-7-60-6-1-88-8-7_Fnone_S-9d00ec)"
       d="m 1072.9259,428.9689 c -0.5673,7.54474 -7.4131,13.1005 -13.2551,20.18905"
       id="path47519-3-5-8-5-0-3-7-9-7-8-4-0-0" />
    <path
       style="fill:none;stroke:#9d00ec;stroke-width:0.7;stroke-linecap:butt;stroke-linejoin:miter;stroke-dasharray:none;stroke-opacity:1;marker-end:url(#Sketch-5-1-1-3-1-7-7-60-6-1-8-8_Fnone_S-9d00ec)"
       d="m 1059.7407,452.45029 c 15.4803,3.15632 26.3944,13.00798 41.8039,28.47996"
       id="path47519-3-5-8-5-0-3-7-9-7-8-5-5" />
    <path
       style="fill:none;stroke:#000000;stroke-width:0.7;stroke-linecap:butt;stroke-linejoin:miter;stroke-dasharray:0.21, 0.56;stroke-dashoffset:0;stroke-opacity:1"
       d="m 1052.7871,452.45029 20.4724,-30.65662"
       id="path91722-7-03-6-0-0" />
    <path
       style="fill:none;stroke:#000000;stroke-width:0.7;stroke-linecap:butt;stroke-linejoin:miter;stroke-dasharray:0.21, 0.56;stroke-dashoffset:0;stroke-opacity:1"
       d="m 1040.649,488.38478 12.1381,-35.93449"
       id="path91722-7-2-2-5-6-5" />
    <path
       style="fill:none;stroke:#000000;stroke-width:0.7;stroke-linecap:butt;stroke-linejoin:miter;stroke-dasharray:0.21, 0.56;stroke-dashoffset:0;stroke-opacity:1"
       d="m 1106.89,486.57472 -54.1029,-34.12443"
       id="path91722-7-2-2-5-6-7-7" />
    <path
       style="fill:none;stroke:#000000;stroke-width:0.7;stroke-linecap:butt;stroke-linejoin:miter;stroke-dasharray:0.21, 0.56;stroke-dashoffset:0;stroke-opacity:1"
       d="m 1062.2502,530.15738 -21.6012,-41.7726"
       id="path91722-7-2-2-6-6-0-3" />
    <path
       style="fill:none;stroke:#000000;stroke-width:0.7;stroke-linecap:butt;stroke-linejoin:miter;stroke-dasharray:0.21, 0.56;stroke-dashoffset:0;stroke-opacity:1"
       d="m 1027.4699,422.01441 45.7896,-0.22074"
       id="path91722-4-6-7-3-3-2" />
    <path
       style="fill:none;stroke:#000000;stroke-width:0.7;stroke-linecap:butt;stroke-linejoin:miter;stroke-dasharray:0.21, 0.56;stroke-dashoffset:0;stroke-opacity:1"
       d="m 1073.2595,421.79367 34.8646,-7.45453"
       id="path91722-0-6-4-4-7-7" />
    <path
       id="path111-5-2-3-1-1-8-8-6-1-8-2"
       style="fill:#ffffff;stroke:#000000;stroke-dasharray:1, 1"
       d="m 1059.7407,452.45029 a 6.9544883,6.9544883 0 0 1 -6.9545,6.95448 6.9544883,6.9544883 0 0 1 -6.9545,-6.95448 6.9544883,6.9544883 0 0 1 6.9545,-6.95449 6.9544883,6.9544883 0 0 1 6.9545,6.95449 z" />
    <path
       id="path111-5-2-3-6-0-5-2-7-38-7-2-1"
       style="fill:#ffffff;stroke:#000000;stroke-dasharray:1, 1"
       d="m 1115.1285,414.33914 a 6.9544883,6.9544883 0 0 1 -6.9545,6.95449 6.9544883,6.9544883 0 0 1 -6.9545,-6.95449 6.9544883,6.9544883 0 0 1 6.9545,-6.95449 6.9544883,6.9544883 0 0 1 6.9545,6.95449 z" />
    <path
       id="path111-7-0-9-8-7-0-1-1-3"
       style="fill:#bbbbbb;stroke:#000000"
       d="m 1079.8804,422.01441 a 6.9544883,6.9544883 0 0 1 -6.9545,6.95449 6.9544883,6.9544883 0 0 1 -6.9545,-6.95449 6.9544883,6.9544883 0 0 1 6.9545,-6.9545 6.9544883,6.9544883 0 0 1 6.9545,6.9545 z" />
    <text
       xml:space="preserve"
       style="font-style:normal;font-weight:normal;font-size:10.5833px;line-height:1.25;font-family:sans-serif;fill:#000000;fill-opacity:1;stroke:none;stroke-width:0.264583"
       x="1071.4617"
       y="423.85397"
       id="text67680-1-7-2-6-4-3-0-4"><tspan
         id="tspan67678-33-0-7-6-9-0-5-9"
         style="font-style:normal;font-variant:normal;font-weight:normal;font-stretch:normal;font-size:5.64444px;font-family:'JetBrainsMono Nerd Font';-inkscape-font-specification:'JetBrainsMono Nerd Font, Normal';font-variant-ligatures:normal;font-variant-caps:normal;font-variant-numeric:normal;font-variant-east-asian:normal;stroke-width:0.264583"
         x="1071.4617"
         y="423.85397">R</tspan></text>
    <text
       xml:space="preserve"
       style="font-style:normal;font-weight:normal;font-size:10.5833px;line-height:1.25;font-family:sans-serif;fill:#000000;fill-opacity:1;stroke:none;stroke-width:0.264583"
       x="1051.0115"
       y="454.51035"
       id="text67680-3-0-6-8-5-7-8-8-4"><tspan
         id="tspan67678-3-0-2-6-3-9-2-5-1"
         style="font-style:normal;font-variant:normal;font-weight:normal;font-stretch:normal;font-size:5.64444px;font-family:'JetBrainsMono Nerd Font';-inkscape-font-specification:'JetBrainsMono Nerd Font, Normal';font-variant-ligatures:normal;font-variant-caps:normal;font-variant-numeric:normal;font-variant-east-asian:normal;stroke-width:0.264583"
         x="1051.0115"
         y="454.51035">1</tspan></text>
    <text
       xml:space="preserve"
       style="font-style:normal;font-weight:normal;font-size:10.5833px;line-height:1.25;font-family:sans-serif;fill:#000000;fill-opacity:1;stroke:none;stroke-width:0.264583"
       x="1106.4872"
       y="416.42764"
       id="text67680-3-3-0-8-7-7-75-9-5-9"><tspan
         style="font-style:normal;font-variant:normal;font-weight:normal;font-stretch:normal;font-size:5.64444px;font-family:'JetBrainsMono Nerd Font';-inkscape-font-specification:'JetBrainsMono Nerd Font, Normal';font-variant-ligatures:normal;font-variant-caps:normal;font-variant-numeric:normal;font-variant-east-asian:normal;stroke-width:0.264583"
         x="1106.4872"
         y="416.42764"
         id="tspan68614-2-9-7-6-1-0-0-5">4</tspan></text>
    <g
       id="g82337-2-5-0-9-3-1-7-7"
       transform="translate(1024.1693,466.79067)">
      <path
         id="path111-5-2-3-6-2-2-0-9-7-7-0-3-4"
         style="fill:#ffffff;stroke:#000000;stroke-dasharray:1, 1"
         d="m 89.547102,19.75026 a 6.9544883,6.9544883 0 0 1 -6.95449,6.954488 6.9544883,6.9544883 0 0 1 -6.95449,-6.954488 6.9544883,6.9544883 0 0 1 6.95449,-6.954488 6.9544883,6.9544883 0 0 1 6.95449,6.954488 z" />
      <text
         xml:space="preserve"
         style="font-style:normal;font-weight:normal;font-size:10.5833px;line-height:1.25;font-family:sans-serif;fill:#000000;fill-opacity:1;stroke:none;stroke-width:0.264583"
         x="80.905861"
         y="21.838703"
         id="text67680-3-3-4-4-2-4-26-8-8-8-1"><tspan
           style="font-style:normal;font-variant:normal;font-weight:normal;font-stretch:normal;font-size:5.64444px;font-family:'JetBrainsMono Nerd Font';-inkscape-font-specification:'JetBrainsMono Nerd Font, Normal';font-variant-ligatures:normal;font-variant-caps:normal;font-variant-numeric:normal;font-variant-east-asian:normal;stroke-width:0.264583"
           x="80.905861"
           y="21.838703"
           id="tspan68618-7-7-5-4-0-1-2-2">6</tspan></text>
    </g>
    <path
       id="path111-5-2-3-6-4-9-2-4-0-9-6-3-2"
       style="fill:#ffffff;stroke:#000000;stroke-dasharray:1, 1"
       d="m 1069.2038,532.18368 a 6.9544883,6.9544883 0 0 1 -6.9545,6.95449 6.9544883,6.9544883 0 0 1 -6.9545,-6.95449 6.9544883,6.9544883 0 0 1 6.9545,-6.95449 6.9544883,6.9544883 0 0 1 6.9545,6.95449 z" />
    <text
       xml:space="preserve"
       style="font-style:normal;font-weight:normal;font-size:10.5833px;line-height:1.25;font-family:sans-serif;fill:#000000;fill-opacity:1;stroke:none;stroke-width:0.264583"
       x="1060.5625"
       y="534.27222"
       id="text67680-3-3-9-8-8-2-7-5-7-0-1"><tspan
         id="tspan67678-3-2-9-5-1-2-5-2-8-7-6"
         style="font-style:normal;font-variant:normal;font-weight:normal;font-stretch:normal;font-size:5.64444px;font-family:'JetBrainsMono Nerd Font';-inkscape-font-specification:'JetBrainsMono Nerd Font, Normal';font-variant-ligatures:normal;font-variant-caps:normal;font-variant-numeric:normal;font-variant-east-asian:normal;stroke-width:0.264583"
         x="1060.5625"
         y="534.27222">5</tspan></text>
    <g
       id="g82310-4-7-3-4-1-8-7-2"
       transform="translate(896.21651,322.45997)">
      <path
         id="path111-5-2-3-6-3-7-7-9-0-3-2-7-0"
         style="fill:#ffffff;stroke:#000000;stroke-dasharray:1, 1"
         d="m 138.20691,99.554432 a 6.9544883,6.9544883 0 0 1 -6.95449,6.954488 6.9544883,6.9544883 0 0 1 -6.95449,-6.954488 6.9544883,6.9544883 0 0 1 6.95449,-6.95449 6.9544883,6.9544883 0 0 1 6.95449,6.95449 z" />
      <text
         xml:space="preserve"
         style="font-style:normal;font-weight:normal;font-size:10.5833px;line-height:1.25;font-family:sans-serif;fill:#000000;fill-opacity:1;stroke:none;stroke-width:0.264583"
         x="129.56567"
         y="101.64288"
         id="text67680-3-3-8-8-9-6-1-27-1-6-2"><tspan
           id="tspan67678-3-2-3-6-7-5-2-3-3-9-2"
           style="font-style:normal;font-variant:normal;font-weight:normal;font-stretch:normal;font-size:5.64444px;font-family:'JetBrainsMono Nerd Font';-inkscape-font-specification:'JetBrainsMono Nerd Font, Normal';font-variant-ligatures:normal;font-variant-caps:normal;font-variant-numeric:normal;font-variant-east-asian:normal;stroke-width:0.264583"
           x="129.56567"
           y="101.64288">3</tspan></text>
    </g>
    <path
       id="path111-5-2-3-6-29-0-9-7-8-3-8-1-9"
       style="fill:#ffffff;stroke:#000000;stroke-dasharray:1, 1"
       d="m 1047.5706,488.38478 a 6.9544883,6.9544883 0 0 1 -6.9545,6.95449 6.9544883,6.9544883 0 0 1 -6.9545,-6.95449 6.9544883,6.9544883 0 0 1 6.9545,-6.95449 6.9544883,6.9544883 0 0 1 6.9545,6.95449 z" />
    <text
       xml:space="preserve"
       style="font-style:normal;font-weight:normal;font-size:10.5833px;line-height:1.25;font-family:sans-serif;fill:#000000;fill-opacity:1;stroke:none;stroke-width:0.264583"
       x="1038.9292"
       y="490.47327"
       id="text67680-3-3-5-0-8-4-0-23-9-1-7"><tspan
         id="tspan67678-3-2-43-6-8-3-15-8-3-9-4"
         style="font-style:normal;font-variant:normal;font-weight:normal;font-stretch:normal;font-size:5.64444px;font-family:'JetBrainsMono Nerd Font';-inkscape-font-specification:'JetBrainsMono Nerd Font, Normal';font-variant-ligatures:normal;font-variant-caps:normal;font-variant-numeric:normal;font-variant-east-asian:normal;stroke-width:0.264583"
         x="1038.9292"
         y="490.47327">2</tspan></text>
    <text
       xml:space="preserve"
       style="font-size:10.5833px;line-height:1.25;font-family:'JetBrainsMono Nerd Font';-inkscape-font-specification:'JetBrainsMono Nerd Font';stroke-width:0.264583"
       x="1020.3055"
       y="413.75858"
       id="text98677-4-04-0-5-0-3"><tspan
         id="tspan98675-3-5-1-4-8-5"
         style="font-style:normal;font-variant:normal;font-weight:normal;font-stretch:normal;font-size:3.52778px;font-family:'JetBrainsMono Nerd Font';-inkscape-font-specification:'JetBrainsMono Nerd Font, Normal';font-variant-ligatures:normal;font-variant-caps:normal;font-variant-numeric:normal;font-variant-east-asian:normal;stroke-width:0.264583"
         x="1020.3055"
         y="413.75858">R(512)</tspan></text>
    <text
       xml:space="preserve"
       style="font-size:10.5833px;line-height:1.25;font-family:'JetBrainsMono Nerd Font';-inkscape-font-specification:'JetBrainsMono Nerd Font';stroke-width:0.264583"
       x="738.76697"
       y="860.45544"
       id="text98677-4-0-8-7-1-9-6"
       transform="rotate(-26.076913)"><tspan
         id="tspan98675-3-9-2-7-2-8-1"
         style="font-style:normal;font-variant:normal;font-weight:normal;font-stretch:normal;font-size:3.52778px;font-family:'JetBrainsMono Nerd Font';-inkscape-font-specification:'JetBrainsMono Nerd Font, Normal';font-variant-ligatures:normal;font-variant-caps:normal;font-variant-numeric:normal;font-variant-east-asian:normal;stroke-width:0.264583"
         x="738.76697"
         y="860.45544">R(512)</tspan></text>
    <text
       xml:space="preserve"
       style="font-size:10.5833px;line-height:1.25;font-family:'JetBrainsMono Nerd Font';-inkscape-font-specification:'JetBrainsMono Nerd Font';stroke-width:0.264583"
       x="1101.1984"
       y="477.42276"
       id="text98677-4-0-8-8-8-2-8-4"><tspan
         id="tspan98675-3-9-2-5-0-7-0-0"
         style="font-style:normal;font-variant:normal;font-weight:normal;font-stretch:normal;font-size:3.52778px;font-family:'JetBrainsMono Nerd Font';-inkscape-font-specification:'JetBrainsMono Nerd Font, Normal';font-variant-ligatures:normal;font-variant-caps:normal;font-variant-numeric:normal;font-variant-east-asian:normal;stroke-width:0.264583"
         x="1101.1984"
         y="477.42276">R(1024)</tspan></text>
    <text
       xml:space="preserve"
       style="font-size:10.5833px;line-height:1.25;font-family:'JetBrainsMono Nerd Font';-inkscape-font-specification:'JetBrainsMono Nerd Font';stroke-width:0.264583"
       x="492.92697"
       y="1068.3235"
       id="text98677-4-0-8-8-8-3-7-3-3"
       transform="rotate(-38.398545)"><tspan
         id="tspan98675-3-9-2-5-0-9-9-7-1"
         style="font-style:normal;font-variant:normal;font-weight:normal;font-stretch:normal;font-size:3.52778px;font-family:'JetBrainsMono Nerd Font';-inkscape-font-specification:'JetBrainsMono Nerd Font, Normal';font-variant-ligatures:normal;font-variant-caps:normal;font-variant-numeric:normal;font-variant-east-asian:normal;stroke-width:0.264583"
         x="492.92697"
         y="1068.3235">R(2048)</tspan></text>
    <text
       xml:space="preserve"
       style="font-size:10.5833px;line-height:1.25;font-family:'JetBrainsMono Nerd Font';-inkscape-font-specification:'JetBrainsMono Nerd Font';stroke-width:0.264583"
       x="435.46344"
       y="1051.2893"
       id="text98677-4-0-8-8-3-8-1-0-2"
       transform="rotate(-42.052764)"><tspan
         id="tspan98675-3-9-2-5-4-9-4-6-7"
         style="font-style:normal;font-variant:normal;font-weight:normal;font-stretch:normal;font-size:3.52778px;font-family:'JetBrainsMono Nerd Font';-inkscape-font-specification:'JetBrainsMono Nerd Font, Normal';font-variant-ligatures:normal;font-variant-caps:normal;font-variant-numeric:normal;font-variant-east-asian:normal;stroke-width:0.264583"
         x="435.46344"
         y="1051.2893">R(1024)</tspan></text>
    <text
       xml:space="preserve"
       style="font-size:10.5833px;line-height:1.25;font-family:'JetBrainsMono Nerd Font';-inkscape-font-specification:'JetBrainsMono Nerd Font';stroke-width:0.264583"
       x="604.86047"
       y="1003.6426"
       id="text98677-4-6-8-7-0-9-7"
       transform="rotate(-38.37145)"><tspan
         id="tspan98675-3-6-6-8-4-2-9"
         style="font-style:normal;font-variant:normal;font-weight:normal;font-stretch:normal;font-size:3.52778px;font-family:'JetBrainsMono Nerd Font';-inkscape-font-specification:'JetBrainsMono Nerd Font, Normal';font-variant-ligatures:normal;font-variant-caps:normal;font-variant-numeric:normal;font-variant-east-asian:normal;stroke-width:0.264583"
         x="604.86047"
         y="1003.6426">R(512)</tspan></text>
  </g>
</svg>
