<?xml version="1.0" encoding="UTF-8" standalone="no"?>
<!-- Created with Inkscape (http://www.inkscape.org/) -->

<svg
   width="101.23737mm"
   height="127.67363mm"
   viewBox="0 0 101.23736 127.67363"
   version="1.1"
   id="svg1375"
   xmlns="http://www.w3.org/2000/svg"
   xmlns:svg="http://www.w3.org/2000/svg">
  <defs
     id="defs1372" />
  <g
     id="layer1"
     transform="translate(-38.521309,-9.8855038)">
    <path
       id="path111-5-2-3"
       style="fill:#ffffff;stroke:#000000;stroke-dasharray:1, 1"
       d="m 78.245618,92.154892 a 6.9544883,6.9544883 0 0 1 -6.954488,6.954488 6.9544883,6.9544883 0 0 1 -6.954488,-6.954488 6.9544883,6.9544883 0 0 1 6.954488,-6.954488 6.9544883,6.9544883 0 0 1 6.954488,6.954488 z" />
    <path
       id="path111-5-2-3-6"
       style="fill:#ffffff;stroke:#000000;stroke-dasharray:1, 1"
       d="m 133.63341,54.043746 a 6.9544883,6.9544883 0 0 1 -6.95449,6.954488 6.9544883,6.9544883 0 0 1 -6.95449,-6.954488 6.9544883,6.9544883 0 0 1 6.95449,-6.954488 6.9544883,6.9544883 0 0 1 6.95449,6.954488 z" />
    <path
       id="path111-7"
       style="fill:#bbbbbb;stroke:#000000"
       d="m 98.385366,61.719009 a 6.9544883,6.9544883 0 0 1 -6.954488,6.954489 6.9544883,6.9544883 0 0 1 -6.954489,-6.954489 6.9544883,6.9544883 0 0 1 6.954489,-6.954488 6.9544883,6.9544883 0 0 1 6.954488,6.954488 z" />
    <text
       xml:space="preserve"
       style="font-style:normal;font-weight:normal;font-size:10.5833px;line-height:1.25;font-family:sans-serif;fill:#000000;fill-opacity:1;stroke:none;stroke-width:0.264583"
       x="89.966721"
       y="63.558495"
       id="text67680"><tspan
         id="tspan67678"
         style="font-style:normal;font-variant:normal;font-weight:normal;font-stretch:normal;font-size:5.64444px;font-family:'JetBrainsMono Nerd Font';-inkscape-font-specification:'JetBrainsMono Nerd Font, Normal';font-variant-ligatures:normal;font-variant-caps:normal;font-variant-numeric:normal;font-variant-east-asian:normal;stroke-width:0.264583"
         x="89.966721"
         y="63.558495">R</tspan></text>
    <text
       xml:space="preserve"
       style="font-style:normal;font-weight:normal;font-size:10.5833px;line-height:1.25;font-family:sans-serif;fill:#000000;fill-opacity:1;stroke:none;stroke-width:0.264583"
       x="69.516518"
       y="94.214874"
       id="text67680-3"><tspan
         id="tspan67678-3"
         style="font-style:normal;font-variant:normal;font-weight:normal;font-stretch:normal;font-size:5.64444px;font-family:'JetBrainsMono Nerd Font';-inkscape-font-specification:'JetBrainsMono Nerd Font, Normal';font-variant-ligatures:normal;font-variant-caps:normal;font-variant-numeric:normal;font-variant-east-asian:normal;stroke-width:0.264583"
         x="69.516518"
         y="94.214874">1</tspan></text>
    <text
       xml:space="preserve"
       style="font-style:normal;font-weight:normal;font-size:10.5833px;line-height:1.25;font-family:sans-serif;fill:#000000;fill-opacity:1;stroke:none;stroke-width:0.264583"
       x="124.99216"
       y="56.132191"
       id="text67680-3-3"><tspan
         style="font-style:normal;font-variant:normal;font-weight:normal;font-stretch:normal;font-size:5.64444px;font-family:'JetBrainsMono Nerd Font';-inkscape-font-specification:'JetBrainsMono Nerd Font, Normal';font-variant-ligatures:normal;font-variant-caps:normal;font-variant-numeric:normal;font-variant-east-asian:normal;stroke-width:0.264583"
         x="124.99216"
         y="56.132191"
         id="tspan68614">4</tspan></text>
    <g
       id="g82337"
       transform="translate(49.711616,-2.4102282)">
      <path
         id="path111-5-2-3-6-2"
         style="fill:#ffffff;stroke:#000000;stroke-dasharray:1, 1"
         d="m 89.547102,19.75026 a 6.9544883,6.9544883 0 0 1 -6.95449,6.954488 6.9544883,6.9544883 0 0 1 -6.95449,-6.954488 6.9544883,6.9544883 0 0 1 6.95449,-6.954488 6.9544883,6.9544883 0 0 1 6.95449,6.954488 z" />
      <text
         xml:space="preserve"
         style="font-style:normal;font-weight:normal;font-size:10.5833px;line-height:1.25;font-family:sans-serif;fill:#000000;fill-opacity:1;stroke:none;stroke-width:0.264583"
         x="80.905861"
         y="21.838703"
         id="text67680-3-3-4"><tspan
           style="font-style:normal;font-variant:normal;font-weight:normal;font-stretch:normal;font-size:5.64444px;font-family:'JetBrainsMono Nerd Font';-inkscape-font-specification:'JetBrainsMono Nerd Font, Normal';font-variant-ligatures:normal;font-variant-caps:normal;font-variant-numeric:normal;font-variant-east-asian:normal;stroke-width:0.264583"
           x="80.905861"
           y="21.838703"
           id="tspan68618">6</tspan></text>
    </g>
    <path
       id="path111-5-2-3-6-4"
       style="fill:#ffffff;stroke:#000000;stroke-dasharray:1, 1"
       d="m 127.31442,128.84603 a 6.9544883,6.9544883 0 0 1 -6.95449,6.95449 6.9544883,6.9544883 0 0 1 -6.95449,-6.95449 6.9544883,6.9544883 0 0 1 6.95449,-6.95449 6.9544883,6.9544883 0 0 1 6.95449,6.95449 z" />
    <text
       xml:space="preserve"
       style="font-style:normal;font-weight:normal;font-size:10.5833px;line-height:1.25;font-family:sans-serif;fill:#000000;fill-opacity:1;stroke:none;stroke-width:0.264583"
       x="118.67319"
       y="130.93448"
       id="text67680-3-3-9"><tspan
         id="tspan67678-3-2-9"
         style="font-style:normal;font-variant:normal;font-weight:normal;font-stretch:normal;font-size:5.64444px;font-family:'JetBrainsMono Nerd Font';-inkscape-font-specification:'JetBrainsMono Nerd Font, Normal';font-variant-ligatures:normal;font-variant-caps:normal;font-variant-numeric:normal;font-variant-east-asian:normal;stroke-width:0.264583"
         x="118.67319"
         y="130.93448">5</tspan></text>
    <g
       id="g82310"
       transform="translate(-85.27855,-37.835421)">
      <path
         id="path111-5-2-3-6-3"
         style="fill:#ffffff;stroke:#000000;stroke-dasharray:1, 1"
         d="m 138.20691,99.554432 a 6.9544883,6.9544883 0 0 1 -6.95449,6.954488 6.9544883,6.9544883 0 0 1 -6.95449,-6.954488 6.9544883,6.9544883 0 0 1 6.95449,-6.95449 6.9544883,6.9544883 0 0 1 6.95449,6.95449 z" />
      <text
         xml:space="preserve"
         style="font-style:normal;font-weight:normal;font-size:10.5833px;line-height:1.25;font-family:sans-serif;fill:#000000;fill-opacity:1;stroke:none;stroke-width:0.264583"
         x="129.56567"
         y="101.64288"
         id="text67680-3-3-8"><tspan
           id="tspan67678-3-2-3"
           style="font-style:normal;font-variant:normal;font-weight:normal;font-stretch:normal;font-size:5.64444px;font-family:'JetBrainsMono Nerd Font';-inkscape-font-specification:'JetBrainsMono Nerd Font, Normal';font-variant-ligatures:normal;font-variant-caps:normal;font-variant-numeric:normal;font-variant-east-asian:normal;stroke-width:0.264583"
           x="129.56567"
           y="101.64288">3</tspan></text>
    </g>
    <path
       id="path111-5-2-3-6-29"
       style="fill:#ffffff;stroke:#000000;stroke-dasharray:1, 1"
       d="m 86.370371,130.1046 a 6.9544883,6.9544883 0 0 1 -6.95449,6.95449 6.9544883,6.9544883 0 0 1 -6.95449,-6.95449 6.9544883,6.9544883 0 0 1 6.95449,-6.95449 6.9544883,6.9544883 0 0 1 6.95449,6.95449 z" />
    <text
       xml:space="preserve"
       style="font-style:normal;font-weight:normal;font-size:10.5833px;line-height:1.25;font-family:sans-serif;fill:#000000;fill-opacity:1;stroke:none;stroke-width:0.264583"
       x="77.729134"
       y="132.19304"
       id="text67680-3-3-5"><tspan
         id="tspan67678-3-2-43"
         style="font-style:normal;font-variant:normal;font-weight:normal;font-stretch:normal;font-size:5.64444px;font-family:'JetBrainsMono Nerd Font';-inkscape-font-specification:'JetBrainsMono Nerd Font, Normal';font-variant-ligatures:normal;font-variant-caps:normal;font-variant-numeric:normal;font-variant-east-asian:normal;stroke-width:0.264583"
         x="77.729134"
         y="132.19304">2</tspan></text>
    <text
       xml:space="preserve"
       style="font-size:10.5833px;line-height:1.25;font-family:'JetBrainsMono Nerd Font';-inkscape-font-specification:'JetBrainsMono Nerd Font';stroke-width:0.264583"
       x="85.578506"
       y="53.28175"
       id="text98677"><tspan
         id="tspan98675"
         style="font-style:normal;font-variant:normal;font-weight:normal;font-stretch:normal;font-size:3.52778px;font-family:'JetBrainsMono Nerd Font';-inkscape-font-specification:'JetBrainsMono Nerd Font, Normal';font-variant-ligatures:normal;font-variant-caps:normal;font-variant-numeric:normal;font-variant-east-asian:normal;stroke-width:0.264583"
         x="85.578506"
         y="53.28175">R(256)</tspan></text>
  </g>
</svg>
