<?xml version="1.0" encoding="UTF-8" standalone="no"?>
<!-- Created with Inkscape (http://www.inkscape.org/) -->

<svg
   width="103.56826mm"
   height="123.26329mm"
   viewBox="0 0 103.56826 123.26329"
   version="1.1"
   id="svg503"
   inkscape:version="1.2.2 (1:1.2.2+202212051552+b0a8486541)"
   sodipodi:docname="rpl-intro.svg"
   inkscape:export-filename="rpl_intro1.svg"
   inkscape:export-xdpi="96"
   inkscape:export-ydpi="96"
   xmlns:inkscape="http://www.inkscape.org/namespaces/inkscape"
   xmlns:sodipodi="http://sodipodi.sourceforge.net/DTD/sodipodi-0.dtd"
   xmlns="http://www.w3.org/2000/svg"
   xmlns:svg="http://www.w3.org/2000/svg">
  <sodipodi:namedview
     id="namedview505"
     pagecolor="#ffffff"
     bordercolor="#111111"
     borderopacity="1"
     inkscape:showpageshadow="0"
     inkscape:pageopacity="0"
     inkscape:pagecheckerboard="1"
     inkscape:deskcolor="#d1d1d1"
     inkscape:document-units="mm"
     showgrid="false"
     inkscape:zoom="1.4039843"
     inkscape:cx="1.4245174"
     inkscape:cy="243.9486"
     inkscape:window-width="1856"
     inkscape:window-height="1016"
     inkscape:window-x="0"
     inkscape:window-y="0"
     inkscape:window-maximized="1"
     inkscape:current-layer="layer1" />
  <defs
     id="defs500">
    <inkscape:path-effect
       effect="bend_path"
       id="path-effect8680"
       is_visible="true"
       lpeversion="1"
       bendpath="m 54.513479,60.183633 c 8.081682,-2.503161 20.239688,-2.164245 28.406923,0.498987"
       prop_scale="1"
       scale_y_rel="false"
       vertical="false"
       hide_knot="false"
       bendpath-nodetypes="cc" />
  </defs>
  <g
     inkscape:label="Layer 1"
     inkscape:groupmode="layer"
     id="layer1"
     transform="translate(-16.067019,-38.293797)">
    <path
       id="path1283-9"
       style="fill:#008200;fill-opacity:0.159158;stroke:#008200;stroke-width:0.9;stroke-linecap:round;stroke-dasharray:5.4, 5.4;stroke-opacity:0.984387"
       d="m 119.18528,109.77119 c 0,28.35241 -22.984161,51.33658 -51.33657,51.33658 -28.352413,0 -51.336584,-22.98417 -51.33658,-51.33658 1e-6,-28.352407 22.98417,-51.336575 51.33658,-51.336574 28.352399,2e-6 51.33657,22.98417 51.33657,51.336574 z"
       sodipodi:nodetypes="sssss" />
    <path
       style="fill:none;stroke:#000000;stroke-width:0.569302;stroke-linecap:butt;stroke-linejoin:miter;stroke-dasharray:0.170791, 0.455442;stroke-dashoffset:0;stroke-opacity:1"
       d="M 43.273927,80.384392 67.851149,45.748286"
       id="path91722-4-6"
       sodipodi:nodetypes="cc" />
    <path
       style="fill:none;stroke:#b21e00;stroke-width:2;stroke-linecap:butt;stroke-linejoin:miter;stroke-dasharray:0.600002, 1;stroke-dashoffset:0;stroke-opacity:1"
       d="M 67.85115,109.80475 43.273927,80.384392"
       id="path91722-4-6-5"
       sodipodi:nodetypes="cc" />
    <path
       style="fill:none;stroke:#000000;stroke-width:0.569302;stroke-linecap:butt;stroke-linejoin:miter;stroke-dasharray:0.170791, 0.455442;stroke-dashoffset:0;stroke-opacity:1"
       d="M 41.882915,136.25194 67.85115,109.80475"
       id="path91722-4-6-3"
       sodipodi:nodetypes="cc" />
    <path
       style="fill:none;stroke:#000000;stroke-width:0.569302;stroke-linecap:butt;stroke-linejoin:miter;stroke-dasharray:0.170791, 0.455442;stroke-dashoffset:0;stroke-opacity:1"
       d="M 67.85115,109.80475 93.338977,80.270184"
       id="path91722-4-6-3-7"
       sodipodi:nodetypes="cc" />
    <path
       style="fill:none;stroke:#000000;stroke-width:0.569302;stroke-linecap:butt;stroke-linejoin:miter;stroke-dasharray:0.170791, 0.455442;stroke-dashoffset:0;stroke-opacity:1"
       d="M 94.442754,136.35674 67.85115,109.80475"
       id="path91722-4-6-6"
       sodipodi:nodetypes="cc" />
    <path
       style="fill:none;stroke:#000000;stroke-width:0.569302;stroke-linecap:butt;stroke-linejoin:miter;stroke-dasharray:0.170791, 0.455442;stroke-dashoffset:0;stroke-opacity:1"
       d="M 93.338977,80.270184 67.851149,45.748286"
       id="path91722-4-6-4"
       sodipodi:nodetypes="cc" />
    <g
       aria-label="Radio range"
       id="text67680-3-3-1-9-3-9-3-0"
       style="font-size:6.35px;line-height:0.35;font-family:'JetBrainsMono Nerd Font';-inkscape-font-specification:'JetBrainsMono Nerd Font, Normal';stroke-width:0.264583"
       inkscape:path-effect="#path-effect8680"
       class="UnoptimicedTransforms"
       transform="translate(0.3933901,8.7018203)">
      <path
         d="m 55.962592,59.435566 c 0.10985,0.0082 0.226354,0.05661 0.348571,0.145368 0.123766,0.08837 0.257084,0.219439 0.398915,0.393453 0.232868,0.280959 0.461538,0.564054 0.686135,0.849186 -0.161841,0.03633 -0.323338,0.07384 -0.484474,0.112556 -0.213543,-0.264795 -0.430723,-0.527747 -0.651641,-0.788774 -0.171815,-0.204765 -0.322911,-0.330588 -0.450758,-0.378112 -0.126257,-0.04791 -0.282587,-0.0468 -0.467322,0.0048 -0.169327,0.04727 -0.338327,0.09589 -0.506982,0.145898 l 0.432621,1.458112 c -0.14753,0.04404 -0.294702,0.08921 -0.441504,0.135524 l -1.07611,-3.436442 c 0.371257,-0.114981 0.743579,-0.223635 1.116821,-0.326214 0.419079,-0.115176 0.754924,-0.110983 1.00184,0.0049 0.246916,0.115888 0.408629,0.344274 0.489101,0.681481 0.05252,0.220059 0.04343,0.415341 -0.02501,0.585486 -0.06694,0.169936 -0.190374,0.306883 -0.370198,0.412804 z m -1.604742,-1.123972 0.363374,1.224723 c 0.197145,-0.05835 0.394719,-0.114848 0.592698,-0.169526 0.227545,-0.06284 0.385438,-0.159797 0.47475,-0.294172 0.09032,-0.13609 0.110637,-0.30604 0.05883,-0.509799 -0.05183,-0.203826 -0.150735,-0.341891 -0.298673,-0.413142 -0.146463,-0.07309 -0.339015,-0.07841 -0.575339,-0.01339 -0.205536,0.05655 -0.410757,0.114971 -0.61564,0.175303 z"
         style="font-size:4.93889px"
         id="path8659"
         inkscape:original-d="m 55.795089,57.659258 q 0.156752,0.05305 0.303857,0.226687 0.149517,0.173633 0.299035,0.47749 l 0.494371,0.98392 h -0.52331 l -0.46061,-0.92363 Q 55.729976,58.061989 55.561167,57.943823 55.394768,57.825656 55.10538,57.825656 h -0.530544 v 1.521699 h -0.487137 v -3.60047 h 1.099675 q 0.617361,0 0.921218,0.258038 0.303858,0.258037 0.303858,0.778936 0,0.340031 -0.159164,0.564307 -0.156751,0.224275 -0.458197,0.311092 z m -1.220253,-1.512053 v 1.278131 h 0.612538 q 0.352089,0 0.530545,-0.161575 0.180867,-0.163987 0.180867,-0.479902 0,-0.315916 -0.180867,-0.475079 -0.178456,-0.161575 -0.530545,-0.161575 z" />
      <path
         d="m 58.773109,59.166246 c -0.34898,0.06162 -0.583031,0.149269 -0.70061,0.2556 -0.117886,0.10661 -0.156463,0.257075 -0.117298,0.450574 0.0312,0.154155 0.105085,0.266922 0.220425,0.338939 0.11666,0.07021 0.258606,0.08913 0.427223,0.05775 0.232356,-0.04324 0.403549,-0.160995 0.515648,-0.356087 0.113211,-0.196671 0.148032,-0.437674 0.100954,-0.722821 l -0.01609,-0.09745 c -0.14357,0.0237 -0.286991,0.04819 -0.430254,0.07349 z m 0.835912,-0.323617 0.234133,1.521876 c -0.139815,0.02138 -0.279439,0.04351 -0.418862,0.06642 l -0.06671,-0.404066 c -0.0698,0.177489 -0.168951,0.317045 -0.297621,0.419301 -0.128987,0.100707 -0.29522,0.169569 -0.499618,0.208232 -0.258388,0.04887 -0.478269,0.01494 -0.663248,-0.104048 -0.183517,-0.12069 -0.304237,-0.307327 -0.358858,-0.561461 -0.06374,-0.296559 -0.01492,-0.541395 0.150678,-0.732894 0.16698,-0.191608 0.449988,-0.327515 0.846244,-0.39945 0.20361,-0.03696 0.407518,-0.0723 0.611696,-0.106049 l -0.0071,-0.04279 c -0.03323,-0.20124 -0.125667,-0.345656 -0.278837,-0.431901 -0.151756,-0.08806 -0.349927,-0.110694 -0.592375,-0.06567 -0.154111,0.02862 -0.300696,0.07556 -0.439146,0.140591 -0.138453,0.06503 -0.267152,0.147803 -0.385587,0.248039 l -0.08385,-0.400588 c 0.149517,-0.09528 0.298487,-0.172956 0.446159,-0.233064 0.147373,-0.06168 0.294307,-0.105976 0.440187,-0.132909 0.394079,-0.07276 0.706555,-0.0217 0.932147,0.146604 0.226227,0.168774 0.367966,0.457171 0.430529,0.863833 0,-1e-6 0,-2e-6 0,-3e-6 z"
         style="font-size:4.93889px"
         id="path8661"
         inkscape:original-d="m 58.619034,57.989642 q -0.537779,0 -0.745174,0.12299 -0.207395,0.12299 -0.207395,0.419613 0,0.236334 0.15434,0.376205 0.156752,0.137459 0.424436,0.137459 0.36897,0 0.590834,-0.260449 0.224276,-0.262861 0.224276,-0.696943 v -0.09887 z m 0.885045,-0.183279 v 1.540992 h -0.443728 v -0.409967 q -0.151929,0.24598 -0.378616,0.364147 -0.226687,0.115755 -0.554661,0.115755 -0.414789,0 -0.660769,-0.23151 -0.243568,-0.233922 -0.243568,-0.624596 0,-0.455786 0.303857,-0.687297 0.306269,-0.23151 0.911573,-0.23151 h 0.622184 v -0.04341 q 0,-0.30627 -0.202572,-0.472668 -0.20016,-0.168809 -0.564306,-0.168809 -0.231511,0 -0.450964,0.05547 -0.219452,0.05547 -0.422024,0.166398 v -0.409967 q 0.243568,-0.09405 0.472667,-0.139871 0.229099,-0.04823 0.44614,-0.04823 0.586011,0 0.875399,0.303858 0.289388,0.303857 0.289388,0.921218 z" />
      <path
         d="m 62.197053,57.770958 -0.133447,-1.456874 c 0.153448,-0.01429 0.30689,-0.02784 0.460318,-0.04067 l 0.308103,3.74479 c -0.142053,0.01157 -0.283981,0.02377 -0.425775,0.03663 l -0.037,-0.403885 c -0.0755,0.168464 -0.177837,0.298416 -0.307115,0.390326 -0.127959,0.0902 -0.286509,0.145138 -0.476556,0.165942 -0.310914,0.03403 -0.578817,-0.06434 -0.80935,-0.297403 -0.228578,-0.23284 -0.374622,-0.558824 -0.431837,-0.978985 -0.05728,-0.420617 -0.003,-0.773311 0.169201,-1.058632 0.17355,-0.285043 0.428564,-0.448179 0.760258,-0.485169 0.202493,-0.02258 0.37993,-0.0014 0.531124,0.06272 0.152733,0.06235 0.283507,0.16958 0.392072,0.321207 z m -1.402931,1.101085 c 0.04057,0.323662 0.137866,0.570199 0.288885,0.73968 0.152604,0.167949 0.340456,0.239077 0.566123,0.214857 0.225684,-0.02422 0.394317,-0.133631 0.507684,-0.330396 0.113061,-0.198101 0.156131,-0.460004 0.126341,-0.78523 -0.02981,-0.32548 -0.119931,-0.574009 -0.273184,-0.74535 -0.153208,-0.17272 -0.349284,-0.247053 -0.585947,-0.221297 -0.236659,0.02576 -0.412395,0.140553 -0.525107,0.342066 -0.111459,0.200013 -0.1454,0.461688 -0.104795,0.78567 z"
         style="font-size:4.93889px"
         id="path8663"
         inkscape:original-d="m 62.195389,57.056366 v -1.46141 h 0.443728 v 3.752399 h -0.443728 v -0.405143 q -0.139871,0.241156 -0.354501,0.359323 -0.212218,0.115755 -0.511252,0.115755 -0.489548,0 -0.798229,-0.390674 -0.306269,-0.390673 -0.306269,-1.027327 0,-0.636654 0.306269,-1.027328 0.308681,-0.390674 0.798229,-0.390674 0.299034,0 0.511252,0.118167 0.21463,0.115755 0.354501,0.356912 z m -1.512053,0.942923 q 0,0.489548 0.20016,0.76929 0.202572,0.27733 0.55466,0.27733 0.352089,0 0.554661,-0.27733 0.202572,-0.279742 0.202572,-0.76929 0,-0.489548 -0.202572,-0.766879 -0.202572,-0.279742 -0.554661,-0.279742 -0.352088,0 -0.55466,0.279742 -0.20016,0.277331 -0.20016,0.766879 z" />
      <path
         d="m 63.538869,57.254319 c 0.1503,-0.0097 0.300604,-0.01871 0.450904,-0.02709 l 0.149447,2.702202 c -0.142729,0.0078 -0.285362,0.01624 -0.427889,0.02525 z m -0.06714,-1.051213 c 0.153326,-0.0099 0.306617,-0.01921 0.459863,-0.0278 l 0.03109,0.562154 c -0.151672,0.0085 -0.303367,0.01761 -0.455076,0.02742 z"
         style="font-size:4.93889px"
         id="path8665"
         inkscape:original-d="m 63.553101,56.646399 h 0.443728 v 2.700956 h -0.443728 z m 0,-1.051443 h 0.443728 v 0.561895 h -0.443728 z" />
      <path
         d="m 66.001902,57.463904 c -0.24028,0.0048 -0.42805,0.103389 -0.561451,0.294304 -0.133594,0.189511 -0.193818,0.446079 -0.183038,0.769875 0.01077,0.323559 0.08691,0.576744 0.226055,0.75941 0.140826,0.181216 0.326978,0.26875 0.560347,0.264003 0.230239,-0.0047 0.411304,-0.100538 0.54475,-0.288936 0.133319,-0.188218 0.19985,-0.443355 0.197408,-0.765376 -0.0024,-0.32058 -0.07303,-0.573646 -0.214005,-0.75916 -0.140864,-0.186953 -0.331419,-0.278851 -0.570066,-0.27412 z m -0.0076,-0.376926 c 0.392079,-0.0077 0.701439,0.115639 0.924751,0.365709 0.223624,0.250419 0.333149,0.598186 0.333272,1.042669 1.23e-4,0.442649 -0.108757,0.790646 -0.322033,1.044524 -0.213588,0.252629 -0.505486,0.380907 -0.878942,0.388541 -0.374987,0.0077 -0.67197,-0.10851 -0.89536,-0.352122 -0.2215,-0.244857 -0.344076,-0.58837 -0.362503,-1.030845 -0.01851,-0.444486 0.0757,-0.796543 0.287872,-1.056009 0.213445,-0.259096 0.519187,-0.394696 0.912943,-0.402467 z"
         style="font-size:4.93889px"
         id="path8667"
         inkscape:original-d="m 65.971903,56.957492 q -0.356912,0 -0.564307,0.279741 -0.207395,0.277331 -0.207395,0.762056 0,0.484725 0.204984,0.764467 0.207395,0.27733 0.566718,0.27733 0.3545,0 0.561895,-0.279742 0.207395,-0.279742 0.207395,-0.762055 0,-0.479902 -0.207395,-0.759644 -0.207395,-0.282153 -0.561895,-0.282153 z m 0,-0.376205 q 0.578776,0 0.909161,0.376205 0.330385,0.376204 0.330385,1.041797 0,0.663181 -0.330385,1.041797 -0.330385,0.376204 -0.909161,0.376204 -0.581188,0 -0.911572,-0.376204 -0.327974,-0.378616 -0.327974,-1.041797 0,-0.665593 0.327974,-1.041797 0.330384,-0.376205 0.911572,-0.376205 z" />
      <path
         d="m 71.139474,57.664744 c -0.04843,-0.03178 -0.102236,-0.05575 -0.161368,-0.07185 -0.05743,-0.01762 -0.121763,-0.02828 -0.192934,-0.03192 -0.252418,-0.0129 -0.450448,0.06065 -0.59271,0.218928 -0.140728,0.156895 -0.216203,0.38817 -0.228256,0.693758 l -0.05613,1.423082 c -0.144246,-0.0058 -0.28853,-0.01113 -0.432843,-0.016 l 0.02926,-0.89242 0.05932,-1.808937 c 0.150231,0.0048 0.300504,0.01009 0.45081,0.01591 l -0.01655,0.419689 c 0.10013,-0.160373 0.227552,-0.276829 0.382167,-0.34892 0.15463,-0.07367 0.340627,-0.105212 0.557115,-0.09372 0.03093,0.0016 0.06498,0.0059 0.102151,0.01273 0.03726,0.0052 0.07846,0.01315 0.123552,0.02382 0,-7e-6 -0.02358,0.455858 -0.02358,0.455851 z"
         style="font-size:4.93889px"
         id="path8669"
         inkscape:original-d="m 71.082014,57.061189 c -0.04984,-0.02894 -0.104502,-0.04984 -0.163986,-0.0627 -0.05788,-0.01447 -0.122189,-0.0217 -0.192926,-0.0217 -0.250803,0 -0.443728,0.08199 -0.578776,0.24598 -0.13344,0.162379 -0.20016,0.396301 -0.20016,0.701766 v 1.422825 h -0.44614 v -0.892288 -1.808668 h 0.44614 v 0.419613 c 0.09325,-0.163987 0.21463,-0.285369 0.364147,-0.364147 0.149517,-0.08038 0.331189,-0.120578 0.545014,-0.120578 0.03055,0 0.06431,0.0024 0.101286,0.0072 0.03698,0.0032 0.07798,0.0088 0.12299,0.01688 z"
         sodipodi:nodetypes="ccscscccccccsccc" />
      <path
         d="m 72.761107,58.712007 c -0.354112,-0.03026 -0.603501,-0.0072 -0.745649,0.06463 -0.142431,0.07198 -0.220085,0.207143 -0.233758,0.404718 -0.01089,0.157417 0.0308,0.286131 0.12432,0.386476 0.09522,0.09887 0.229126,0.154705 0.40233,0.168375 0.238686,0.01884 0.436775,-0.05128 0.596303,-0.211657 0.161079,-0.161685 0.256258,-0.386541 0.283165,-0.675005 l 0.0092,-0.09858 c -0.145245,-0.01355 -0.29055,-0.02653 -0.435906,-0.03896 z m 0.892332,-0.101031 -0.155519,1.535128 c -0.142292,-0.01436 -0.284687,-0.02816 -0.427178,-0.04141 l 0.03813,-0.408767 c -0.113551,0.154344 -0.246484,0.264343 -0.399119,0.330327 -0.152559,0.06441 -0.333749,0.08808 -0.544662,0.07186 -0.266693,-0.02051 -0.473743,-0.112147 -0.622684,-0.276931 -0.147144,-0.166139 -0.213777,-0.379138 -0.197665,-0.639448 0.0188,-0.303719 0.132665,-0.526793 0.343816,-0.66759 0.212746,-0.14069 0.521082,-0.196786 0.922341,-0.163742 0.206224,0.01698 0.412369,0.03507 0.618413,0.05431 l 0.004,-0.04328 c 0.01899,-0.203582 -0.03366,-0.367085 -0.159163,-0.489896 -0.123713,-0.124231 -0.30829,-0.197024 -0.552602,-0.216542 -0.1553,-0.01241 -0.308045,-0.0054 -0.457817,0.02092 -0.149777,0.02633 -0.294953,0.0721 -0.435208,0.137198 l 0.02669,-0.409708 c 0.168022,-0.05201 0.330626,-0.08756 0.487404,-0.106797 0.156898,-0.02084 0.308791,-0.02529 0.455312,-0.01346 0.395766,0.03194 0.682439,0.160804 0.857165,0.3813 0.175081,0.220943 0.239867,0.536367 0.198314,0.946534 z"
         style="font-size:4.93889px"
         id="path8671"
         inkscape:original-d="m 72.774934,57.989642 q -0.537779,0 -0.745174,0.12299 -0.207395,0.12299 -0.207395,0.419613 0,0.236334 0.154341,0.376205 0.156751,0.137459 0.424435,0.137459 0.36897,0 0.590834,-0.260449 0.224276,-0.262861 0.224276,-0.696943 v -0.09887 z m 0.885046,-0.183279 v 1.540992 h -0.443729 v -0.409967 q -0.151929,0.24598 -0.378616,0.364147 -0.226687,0.115755 -0.55466,0.115755 -0.41479,0 -0.66077,-0.23151 -0.243568,-0.233922 -0.243568,-0.624596 0,-0.455786 0.303857,-0.687297 0.306269,-0.23151 0.911573,-0.23151 h 0.622184 v -0.04341 q 0,-0.30627 -0.202571,-0.472668 -0.200161,-0.168809 -0.564307,-0.168809 -0.231511,0 -0.450963,0.05547 -0.219453,0.05547 -0.422025,0.166398 v -0.409967 q 0.243569,-0.09405 0.472668,-0.139871 0.229099,-0.04823 0.44614,-0.04823 0.58601,0 0.875399,0.303858 0.289388,0.303857 0.289388,0.921218 z" />
      <path
         d="m 76.782229,58.933501 -0.263747,1.608729 c -0.140416,-0.02293 -0.280991,-0.04521 -0.421719,-0.06686 l 0.246825,-1.597115 c 0.03906,-0.252761 0.01913,-0.449346 -0.06121,-0.59017 -0.08024,-0.140643 -0.220592,-0.226025 -0.420211,-0.254503 -0.239868,-0.03422 -0.439636,0.01617 -0.597392,0.149597 -0.157917,0.133561 -0.252414,0.331586 -0.285599,0.593422 l -0.192093,1.515653 c -0.142362,-0.01796 -0.284853,-0.03531 -0.427465,-0.05208 l 0.317103,-2.684997 c 0.150134,0.01781 0.300217,0.03625 0.450243,0.05535 l -0.0528,0.416626 c 0.126638,-0.147733 0.267568,-0.251906 0.422389,-0.312235 0.156395,-0.06009 0.329982,-0.07667 0.519674,-0.04919 0.31304,0.04535 0.535128,0.177935 0.664094,0.393787 0.129459,0.214667 0.162286,0.505744 0.101914,0.873981 z"
         style="font-size:4.93889px"
         id="path8673"
         inkscape:original-d="m 76.819134,57.717135 v 1.63022 h -0.443729 v -1.61575 q 0,-0.383439 -0.149517,-0.573953 -0.149517,-0.190514 -0.448551,-0.190514 -0.359324,0 -0.566719,0.229099 -0.207395,0.229099 -0.207395,0.624596 v 1.526522 h -0.44614 v -2.700956 h 0.44614 v 0.419613 q 0.159164,-0.243568 0.373793,-0.364147 0.217041,-0.120578 0.499195,-0.120578 0.465432,0 0.704178,0.289388 0.238745,0.286977 0.238745,0.84646 z" />
      <path
         d="m 79.329848,59.679886 c 0.07051,-0.31353 0.0605,-0.570729 -0.03289,-0.772438 -0.09166,-0.20105 -0.257194,-0.32751 -0.494898,-0.376738 -0.236104,-0.0489 -0.43809,0.0014 -0.603543,0.149301 -0.164095,0.148394 -0.274672,0.38075 -0.334473,0.696647 -0.05945,0.314055 -0.04168,0.570291 0.05061,0.767961 0.09397,0.198256 0.252815,0.319407 0.478086,0.365901 0.226781,0.04681 0.420493,-0.0015 0.583736,-0.146597 0.164512,-0.144489 0.283277,-0.372374 0.353371,-0.684037 z m 0.187966,1.116146 c -0.105357,0.446689 -0.279278,0.756872 -0.515811,0.931404 -0.237625,0.176641 -0.54614,0.222591 -0.932008,0.143554 -0.142967,-0.02928 -0.275629,-0.06796 -0.398275,-0.116362 -0.122943,-0.04682 -0.240111,-0.105009 -0.351769,-0.174726 l 0.07903,-0.42417 c 0.108735,0.09208 0.218614,0.166102 0.330115,0.222132 0.111503,0.05603 0.228042,0.09636 0.350016,0.121164 0.269117,0.05472 0.485562,0.02356 0.652378,-0.09618 0.166136,-0.117924 0.28422,-0.326177 0.351498,-0.625321 l 0.0481,-0.213889 c -0.121489,0.135652 -0.257566,0.227216 -0.408554,0.275095 -0.15106,0.0479 -0.319548,0.05244 -0.506865,0.01429 -0.311013,-0.06335 -0.538186,-0.234763 -0.685045,-0.518665 -0.146622,-0.283445 -0.186178,-0.630292 -0.112848,-1.039882 0.07367,-0.411476 0.231705,-0.723472 0.47968,-0.934241 0.247593,-0.210444 0.53967,-0.283134 0.871194,-0.215275 0.199441,0.04082 0.362565,0.115763 0.48838,0.223552 0.125872,0.107838 0.216612,0.249784 0.272105,0.425269 L 79.619,58.39421 c 0.147244,0.03316 0.294349,0.06708 0.441309,0.101766 z"
         style="font-size:4.93889px"
         id="path8675"
         inkscape:original-d="m 79.481504,57.965527 q 0,-0.482314 -0.20016,-0.747586 -0.197748,-0.265273 -0.557072,-0.265273 -0.356912,0 -0.557072,0.265273 -0.197748,0.265272 -0.197748,0.747586 0,0.479902 0.197748,0.745174 0.20016,0.265273 0.557072,0.265273 0.359324,0 0.557072,-0.265273 0.20016,-0.265272 0.20016,-0.745174 z m 0.443729,1.04662 q 0,0.689708 -0.306269,1.024916 -0.306269,0.33762 -0.9381,0.33762 -0.233922,0 -0.441317,-0.03617 -0.207395,-0.03376 -0.402732,-0.106109 v -0.43167 q 0.195337,0.106109 0.385851,0.156751 0.190514,0.05064 0.388262,0.05064 0.436494,0 0.653535,-0.229099 0.217041,-0.226687 0.217041,-0.687296 v -0.219453 q -0.137459,0.238745 -0.352089,0.356912 -0.214629,0.118167 -0.513663,0.118167 -0.496783,0 -0.800641,-0.378616 -0.303857,-0.378616 -0.303857,-1.003212 0,-0.627008 0.303857,-1.005624 0.303858,-0.378616 0.800641,-0.378616 0.299034,0 0.513663,0.118167 0.21463,0.118167 0.352089,0.356912 V 56.6464 h 0.443729 z" />
      <path
         d="m 82.856612,60.557968 -0.06673,0.206507 c -0.638754,-0.206486 -1.282609,-0.395491 -1.930791,-0.56812 -0.06011,0.299652 -0.03332,0.547907 0.0774,0.744541 0.112844,0.195841 0.304239,0.331489 0.575901,0.411089 0.157416,0.04612 0.315175,0.07172 0.474086,0.07682 0.16039,0.0055 0.325622,-0.0082 0.496459,-0.04122 l -0.127908,0.399565 c -0.165719,0.01767 -0.32969,0.02001 -0.492512,0.007 -0.162823,-0.01301 -0.322561,-0.04247 -0.479903,-0.08849 -0.39384,-0.115182 -0.674265,-0.320713 -0.845498,-0.625239 -0.169353,-0.303449 -0.205623,-0.66225 -0.100418,-1.076136 0.108828,-0.428137 0.309399,-0.738375 0.6091,-0.927231 0.301051,-0.189593 0.655102,-0.229141 1.054419,-0.113751 0.358132,0.103488 0.606265,0.302451 0.740466,0.590241 0.136535,0.287359 0.139569,0.62181 0.01593,1.004413 z m -0.381356,-0.257274 c 0.06889,-0.232761 0.06108,-0.437876 -0.02595,-0.615617 -0.08536,-0.177053 -0.235522,-0.297614 -0.448943,-0.359349 -0.241641,-0.0699 -0.455051,-0.05649 -0.637474,0.03845 -0.181082,0.09549 -0.314203,0.263561 -0.401241,0.50301 0.507117,0.134393 1.011772,0.278724 1.513609,0.43351 z"
         style="font-size:4.93889px"
         id="path8677"
         inkscape:original-d="m 83.149497,57.885945 v 0.217041 h -2.040186 q 0.02894,0.458198 0.274919,0.699355 0.248391,0.238745 0.689708,0.238745 0.255626,0 0.494371,-0.0627 0.241157,-0.0627 0.477491,-0.188102 v 0.419613 q -0.238745,0.101285 -0.489548,0.15434 -0.250803,0.05305 -0.508841,0.05305 -0.6463,0 -1.024916,-0.376204 -0.376205,-0.376205 -0.376205,-1.017682 0,-0.663181 0.356912,-1.051443 0.359324,-0.390674 0.967039,-0.390674 0.545014,0 0.860929,0.352089 0.318327,0.349677 0.318327,0.952569 z M 82.705769,57.75572 q -0.0048,-0.364146 -0.204983,-0.581187 -0.197749,-0.217041 -0.525722,-0.217041 -0.371382,0 -0.595657,0.209806 -0.221864,0.209806 -0.255626,0.590834 z" />
    </g>
    <g
       id="g943"
       transform="translate(-20.271385,-17.020227)">
      <path
         id="path111-7-0-9"
         style="fill:#bbbbbb;stroke:#000000"
         d="m 95.077024,62.768512 a 6.9544883,6.9544883 0 0 1 -6.95449,6.95449 6.9544883,6.9544883 0 0 1 -6.95449,-6.95449 6.9544883,6.9544883 0 0 1 6.95449,-6.954488 6.9544883,6.9544883 0 0 1 6.95449,6.954488 z" />
      <text
         xml:space="preserve"
         style="font-style:normal;font-weight:normal;font-size:10.5833px;line-height:1.25;font-family:sans-serif;fill:#000000;fill-opacity:1;stroke:none;stroke-width:0.264583"
         x="85.965904"
         y="64.82592"
         id="text67680-1-7"><tspan
           sodipodi:role="line"
           id="tspan67678-33-0"
           style="font-style:normal;font-variant:normal;font-weight:normal;font-stretch:normal;font-size:5.64444px;font-family:'JetBrainsMono Nerd Font';-inkscape-font-specification:'JetBrainsMono Nerd Font, Normal';font-variant-ligatures:normal;font-variant-caps:normal;font-variant-numeric:normal;font-variant-east-asian:normal;stroke-width:0.264583"
           x="85.965904"
           y="64.82592">R</tspan></text>
    </g>
    <g
       id="g82310-4-7"
       transform="translate(-88.112707,-19.311882)">
      <path
         id="path111-5-2-3-6-3-7-7"
         style="fill:#ffffff;stroke:#000000;stroke-dasharray:1, 1"
         d="m 138.20691,99.554432 a 6.9544883,6.9544883 0 0 1 -6.95449,6.954488 6.9544883,6.9544883 0 0 1 -6.95449,-6.954488 6.9544883,6.9544883 0 0 1 6.95449,-6.95449 6.9544883,6.9544883 0 0 1 6.95449,6.95449 z" />
      <text
         xml:space="preserve"
         style="font-style:normal;font-weight:normal;font-size:10.5833px;line-height:1.25;font-family:sans-serif;fill:#000000;fill-opacity:1;stroke:none;stroke-width:0.264583"
         x="129.56567"
         y="101.64288"
         id="text67680-3-3-8-8-9"><tspan
           sodipodi:role="line"
           id="tspan67678-3-2-3-6-7"
           style="font-style:normal;font-variant:normal;font-weight:normal;font-stretch:normal;font-size:5.64444px;font-family:'JetBrainsMono Nerd Font';-inkscape-font-specification:'JetBrainsMono Nerd Font, Normal';font-variant-ligatures:normal;font-variant-caps:normal;font-variant-numeric:normal;font-variant-east-asian:normal;stroke-width:0.264583"
           x="129.56567"
           y="101.64288">1</tspan></text>
    </g>
    <g
       id="g82310-4-7-35"
       transform="translate(-63.402215,10.21652)">
      <path
         id="path111-5-2-3-6-3-7-7-62"
         style="fill:#ffffff;stroke:#000000;stroke-dasharray:1, 1"
         d="m 138.20691,99.554432 a 6.9544883,6.9544883 0 0 1 -6.95449,6.954488 6.9544883,6.9544883 0 0 1 -6.95449,-6.954488 6.9544883,6.9544883 0 0 1 6.95449,-6.95449 6.9544883,6.9544883 0 0 1 6.95449,6.95449 z" />
      <text
         xml:space="preserve"
         style="font-style:normal;font-weight:normal;font-size:10.5833px;line-height:1.25;font-family:sans-serif;fill:#000000;fill-opacity:1;stroke:none;stroke-width:0.264583"
         x="129.56567"
         y="101.64288"
         id="text67680-3-3-8-8-9-9"><tspan
           sodipodi:role="line"
           id="tspan67678-3-2-3-6-7-1"
           style="font-style:normal;font-variant:normal;font-weight:normal;font-stretch:normal;font-size:5.64444px;font-family:'JetBrainsMono Nerd Font';-inkscape-font-specification:'JetBrainsMono Nerd Font, Normal';font-variant-ligatures:normal;font-variant-caps:normal;font-variant-numeric:normal;font-variant-east-asian:normal;stroke-width:0.264583"
           x="129.56567"
           y="101.64288">3</tspan></text>
    </g>
    <g
       id="g82310-4-7-2"
       transform="translate(-36.889563,36.731308)">
      <path
         id="path111-5-2-3-6-3-7-7-7"
         style="fill:#ffffff;stroke:#000000;stroke-dasharray:1, 1"
         d="m 138.20691,99.554432 a 6.9544883,6.9544883 0 0 1 -6.95449,6.954488 6.9544883,6.9544883 0 0 1 -6.95449,-6.954488 6.9544883,6.9544883 0 0 1 6.95449,-6.95449 6.9544883,6.9544883 0 0 1 6.95449,6.95449 z" />
      <text
         xml:space="preserve"
         style="font-style:normal;font-weight:normal;font-size:10.5833px;line-height:1.25;font-family:sans-serif;fill:#000000;fill-opacity:1;stroke:none;stroke-width:0.264583"
         x="129.56567"
         y="101.64288"
         id="text67680-3-3-8-8-9-0"><tspan
           sodipodi:role="line"
           id="tspan67678-3-2-3-6-7-9"
           style="font-style:normal;font-variant:normal;font-weight:normal;font-stretch:normal;font-size:5.64444px;font-family:'JetBrainsMono Nerd Font';-inkscape-font-specification:'JetBrainsMono Nerd Font, Normal';font-variant-ligatures:normal;font-variant-caps:normal;font-variant-numeric:normal;font-variant-east-asian:normal;stroke-width:0.264583"
           x="129.56567"
           y="101.64288">5</tspan></text>
    </g>
    <g
       id="g82310-4-7-36"
       transform="translate(-89.37045,36.697509)">
      <path
         id="path111-5-2-3-6-3-7-7-0"
         style="fill:#ffffff;stroke:#000000;stroke-dasharray:1, 1"
         d="m 138.20691,99.554432 a 6.9544883,6.9544883 0 0 1 -6.95449,6.954488 6.9544883,6.9544883 0 0 1 -6.95449,-6.954488 6.9544883,6.9544883 0 0 1 6.95449,-6.95449 6.9544883,6.9544883 0 0 1 6.95449,6.95449 z" />
      <text
         xml:space="preserve"
         style="font-style:normal;font-weight:normal;font-size:10.5833px;line-height:1.25;font-family:sans-serif;fill:#000000;fill-opacity:1;stroke:none;stroke-width:0.264583"
         x="129.56567"
         y="101.64288"
         id="text67680-3-3-8-8-9-6"><tspan
           sodipodi:role="line"
           id="tspan67678-3-2-3-6-7-2"
           style="font-style:normal;font-variant:normal;font-weight:normal;font-stretch:normal;font-size:5.64444px;font-family:'JetBrainsMono Nerd Font';-inkscape-font-specification:'JetBrainsMono Nerd Font, Normal';font-variant-ligatures:normal;font-variant-caps:normal;font-variant-numeric:normal;font-variant-east-asian:normal;stroke-width:0.264583"
           x="129.56567"
           y="101.64288">4</tspan></text>
    </g>
    <g
       id="g82310-4-7-3"
       transform="translate(-38.341041,-19.278083)">
      <path
         id="path111-5-2-3-6-3-7-7-6"
         style="fill:#ffffff;stroke:#000000;stroke-dasharray:1, 1"
         d="m 138.20691,99.554432 a 6.9544883,6.9544883 0 0 1 -6.95449,6.954488 6.9544883,6.9544883 0 0 1 -6.95449,-6.954488 6.9544883,6.9544883 0 0 1 6.95449,-6.95449 6.9544883,6.9544883 0 0 1 6.95449,6.95449 z" />
      <text
         xml:space="preserve"
         style="font-style:normal;font-weight:normal;font-size:10.5833px;line-height:1.25;font-family:sans-serif;fill:#000000;fill-opacity:1;stroke:none;stroke-width:0.264583"
         x="129.56567"
         y="101.64288"
         id="text67680-3-3-8-8-9-7"><tspan
           sodipodi:role="line"
           id="tspan67678-3-2-3-6-7-5"
           style="font-style:normal;font-variant:normal;font-weight:normal;font-stretch:normal;font-size:5.64444px;font-family:'JetBrainsMono Nerd Font';-inkscape-font-specification:'JetBrainsMono Nerd Font, Normal';font-variant-ligatures:normal;font-variant-caps:normal;font-variant-numeric:normal;font-variant-east-asian:normal;stroke-width:0.264583"
           x="129.56567"
           y="101.64288">2</tspan></text>
    </g>
  </g>
</svg>
