<?xml version="1.0" encoding="UTF-8" standalone="no"?>
<!-- Created with Inkscape (http://www.inkscape.org/) -->

<svg
   width="104.95857mm"
   height="127.85506mm"
   viewBox="0 0 104.95856 127.85506"
   version="1.1"
   id="svg1375"
   xmlns="http://www.w3.org/2000/svg"
   xmlns:svg="http://www.w3.org/2000/svg">
  <defs
     id="defs1372">
    <marker
       style="overflow:visible"
       id="Sketch-5-1-1-3-1"
       refX="1"
       refY="0"
       orient="auto-start-reverse"
       markerWidth="7.5655537"
       markerHeight="6.7364779"
       viewBox="0 0 7.5655539 6.7364778"
       preserveAspectRatio="xMidYMid">
      <path
         style="fill:none;stroke:context-stroke;stroke-width:0.4;stroke-linecap:round"
         d="m -4.5421538,-3.2452189 3.83900644,2.60235235 0.56348102,0.59255887 L -2.4921466,1.1808717 -4.4106004,2.139946 -4.5795251,2.8245356 -4.703996,3.0734773 -4.3128019,2.6822832 -3.9749524,2.3088707 0.66603196,-0.12720162 0.02589622,-0.32279868 -1.7613224,-0.60366199 -3.580874,-2.0472634 -4.3186004,-2.392437 l -1.2937699,-0.2549423 2.1825172,0.042166 0.6996091,1.0554873 1.4406512,0.1145833 1.20879971,0.91674665 1.53333299,0.47138389 -1.85995289,1.23785256 -2.03832621,0.9224332 -1.5469949,0.9779853"
         id="path22096-7-2-8-8-6" />
    </marker>
    <marker
       style="overflow:visible"
       id="Sketch-5-1-1-3-1_Fnone_S-000000"
       refX="1"
       refY="0"
       orient="auto-start-reverse"
       markerWidth="7.5655537"
       markerHeight="6.7364779"
       viewBox="0 0 7.5655539 6.7364778"
       preserveAspectRatio="xMidYMid">
      <path
         style="fill:none;stroke:#000000;stroke-width:0.4;stroke-linecap:round"
         d="m -4.5421538,-3.2452189 3.83900644,2.60235235 0.56348102,0.59255887 L -2.4921466,1.1808717 -4.4106004,2.139946 -4.5795251,2.8245356 -4.703996,3.0734773 -4.3128019,2.6822832 -3.9749524,2.3088707 0.66603196,-0.12720162 0.02589622,-0.32279868 -1.7613224,-0.60366199 -3.580874,-2.0472634 -4.3186004,-2.392437 l -1.2937699,-0.2549423 2.1825172,0.042166 0.6996091,1.0554873 1.4406512,0.1145833 1.20879971,0.91674665 1.53333299,0.47138389 -1.85995289,1.23785256 -2.03832621,0.9224332 -1.5469949,0.9779853"
         id="path23235" />
    </marker>
    <marker
       style="overflow:visible"
       id="Sketch-5-1-1-3-1-7"
       refX="1"
       refY="0"
       orient="auto-start-reverse"
       markerWidth="7.5655537"
       markerHeight="6.7364779"
       viewBox="0 0 7.5655539 6.7364778"
       preserveAspectRatio="xMidYMid">
      <path
         style="fill:none;stroke:context-stroke;stroke-width:0.4;stroke-linecap:round"
         d="m -4.5421538,-3.2452189 3.83900644,2.60235235 0.56348102,0.59255887 L -2.4921466,1.1808717 -4.4106004,2.139946 -4.5795251,2.8245356 -4.703996,3.0734773 -4.3128019,2.6822832 -3.9749524,2.3088707 0.66603196,-0.12720162 0.02589622,-0.32279868 -1.7613224,-0.60366199 -3.580874,-2.0472634 -4.3186004,-2.392437 l -1.2937699,-0.2549423 2.1825172,0.042166 0.6996091,1.0554873 1.4406512,0.1145833 1.20879971,0.91674665 1.53333299,0.47138389 -1.85995289,1.23785256 -2.03832621,0.9224332 -1.5469949,0.9779853"
         id="path22096-7-2-8-8-6-5" />
    </marker>
    <marker
       style="overflow:visible"
       id="Sketch-5-1-1-3-1-7_Fnone_S-000000"
       refX="1"
       refY="0"
       orient="auto-start-reverse"
       markerWidth="7.5655537"
       markerHeight="6.7364779"
       viewBox="0 0 7.5655539 6.7364778"
       preserveAspectRatio="xMidYMid">
      <path
         style="fill:none;stroke:#000000;stroke-width:0.4;stroke-linecap:round"
         d="m -4.5421538,-3.2452189 3.83900644,2.60235235 0.56348102,0.59255887 L -2.4921466,1.1808717 -4.4106004,2.139946 -4.5795251,2.8245356 -4.703996,3.0734773 -4.3128019,2.6822832 -3.9749524,2.3088707 0.66603196,-0.12720162 0.02589622,-0.32279868 -1.7613224,-0.60366199 -3.580874,-2.0472634 -4.3186004,-2.392437 l -1.2937699,-0.2549423 2.1825172,0.042166 0.6996091,1.0554873 1.4406512,0.1145833 1.20879971,0.91674665 1.53333299,0.47138389 -1.85995289,1.23785256 -2.03832621,0.9224332 -1.5469949,0.9779853"
         id="path23238" />
    </marker>
    <marker
       style="overflow:visible"
       id="Sketch-5-1-1-3-1-1"
       refX="1"
       refY="0"
       orient="auto-start-reverse"
       markerWidth="7.5655537"
       markerHeight="6.7364779"
       viewBox="0 0 7.5655539 6.7364778"
       preserveAspectRatio="xMidYMid">
      <path
         style="fill:none;stroke:context-stroke;stroke-width:0.4;stroke-linecap:round"
         d="m -4.5421538,-3.2452189 3.83900644,2.60235235 0.56348102,0.59255887 L -2.4921466,1.1808717 -4.4106004,2.139946 -4.5795251,2.8245356 -4.703996,3.0734773 -4.3128019,2.6822832 -3.9749524,2.3088707 0.66603196,-0.12720162 0.02589622,-0.32279868 -1.7613224,-0.60366199 -3.580874,-2.0472634 -4.3186004,-2.392437 l -1.2937699,-0.2549423 2.1825172,0.042166 0.6996091,1.0554873 1.4406512,0.1145833 1.20879971,0.91674665 1.53333299,0.47138389 -1.85995289,1.23785256 -2.03832621,0.9224332 -1.5469949,0.9779853"
         id="path22096-7-2-8-8-6-4" />
    </marker>
    <marker
       style="overflow:visible"
       id="Sketch-5-1-1-3-1-1_Fnone_S-000000"
       refX="1"
       refY="0"
       orient="auto-start-reverse"
       markerWidth="7.5655537"
       markerHeight="6.7364779"
       viewBox="0 0 7.5655539 6.7364778"
       preserveAspectRatio="xMidYMid">
      <path
         style="fill:none;stroke:#000000;stroke-width:0.4;stroke-linecap:round"
         d="m -4.5421538,-3.2452189 3.83900644,2.60235235 0.56348102,0.59255887 L -2.4921466,1.1808717 -4.4106004,2.139946 -4.5795251,2.8245356 -4.703996,3.0734773 -4.3128019,2.6822832 -3.9749524,2.3088707 0.66603196,-0.12720162 0.02589622,-0.32279868 -1.7613224,-0.60366199 -3.580874,-2.0472634 -4.3186004,-2.392437 l -1.2937699,-0.2549423 2.1825172,0.042166 0.6996091,1.0554873 1.4406512,0.1145833 1.20879971,0.91674665 1.53333299,0.47138389 -1.85995289,1.23785256 -2.03832621,0.9224332 -1.5469949,0.9779853"
         id="path23241" />
    </marker>
  </defs>
  <g
     id="layer1"
     transform="translate(-287.62706,-9.885503)">
    <g
       id="g91953">
      <path
         id="path1283-9-0"
         style="fill:#0030f2;fill-opacity:0.159158;stroke:#0030f2;stroke-width:0.9;stroke-linecap:round;stroke-dasharray:5.4, 5.4;stroke-opacity:0.984387"
         d="M 392.13563,61.671878 A 51.336578,51.336578 0 0 1 340.79906,113.00846 51.336578,51.336578 0 0 1 289.46248,61.671878 51.336578,51.336578 0 0 1 340.79906,10.335301 51.336578,51.336578 0 0 1 392.13563,61.671878 Z" />
      <text
         xml:space="preserve"
         style="font-style:normal;font-weight:normal;font-size:10.5833px;line-height:1.25;font-family:sans-serif;fill:#0030f2;fill-opacity:0.988235;stroke:none;stroke-width:0.264583"
         x="333.90375"
         y="22.008612"
         id="text67680-3-3-1-2-4-0"
         transform="rotate(-0.9286505)"><tspan
           id="tspan67678-3-2-5-7-3-4"
           style="font-style:normal;font-variant:normal;font-weight:normal;font-stretch:normal;font-size:5.64444px;font-family:'JetBrainsMono Nerd Font';-inkscape-font-specification:'JetBrainsMono Nerd Font, Normal';font-variant-ligatures:normal;font-variant-caps:normal;font-variant-numeric:normal;font-variant-east-asian:normal;fill:#0030f2;fill-opacity:0.988235;stroke-width:0.264583"
           x="333.90375"
           y="22.008612">DIO</tspan></text>
    </g>
    <text
       xml:space="preserve"
       style="font-style:normal;font-weight:normal;font-size:10.5833px;line-height:0.35;font-family:sans-serif;fill:#000000;fill-opacity:1;stroke:none;stroke-width:0.264583"
       x="310.25452"
       y="58.057713"
       id="text67680-3-3-1-9-3-9-3-0"><tspan
         style="font-style:normal;font-variant:normal;font-weight:normal;font-stretch:normal;font-size:5.64444px;font-family:'JetBrainsMono Nerd Font';-inkscape-font-specification:'JetBrainsMono Nerd Font, Normal';font-variant-ligatures:normal;font-variant-caps:normal;font-variant-numeric:normal;font-variant-east-asian:normal;stroke-width:0.264583"
         x="310.25452"
         y="58.057713"
         id="tspan82832-9-0-1">DIO</tspan><tspan
         style="font-style:normal;font-variant:normal;font-weight:normal;font-stretch:normal;font-size:5.64444px;font-family:'JetBrainsMono Nerd Font';-inkscape-font-specification:'JetBrainsMono Nerd Font, Normal';font-variant-ligatures:normal;font-variant-caps:normal;font-variant-numeric:normal;font-variant-east-asian:normal;stroke-width:0.264583"
         x="310.25452"
         y="62.373093"
         id="tspan82839-2-6-0"><tspan
           style="font-style:normal;font-variant:normal;font-weight:normal;font-stretch:normal;font-size:3.52778px;font-family:'JetBrainsMono Nerd Font';-inkscape-font-specification:'JetBrainsMono Nerd Font, Normal';font-variant-ligatures:normal;font-variant-caps:normal;font-variant-numeric:normal;font-variant-east-asian:normal"
           id="tspan82841-0-4-0">(ff02::a1)</tspan></tspan></text>
    <text
       xml:space="preserve"
       style="font-style:normal;font-weight:normal;font-size:10.5833px;line-height:0.35;font-family:sans-serif;fill:#000000;fill-opacity:1;stroke:none;stroke-width:0.264583"
       x="328.75763"
       y="83.294571"
       id="text67680-3-3-1-9-3-9-3-0-4"><tspan
         style="font-style:normal;font-variant:normal;font-weight:normal;font-stretch:normal;font-size:5.64444px;font-family:'JetBrainsMono Nerd Font';-inkscape-font-specification:'JetBrainsMono Nerd Font, Normal';font-variant-ligatures:normal;font-variant-caps:normal;font-variant-numeric:normal;font-variant-east-asian:normal;stroke-width:0.264583"
         x="328.75763"
         y="83.294571"
         id="tspan82832-9-0-1-8">DIO</tspan><tspan
         style="font-style:normal;font-variant:normal;font-weight:normal;font-stretch:normal;font-size:5.64444px;font-family:'JetBrainsMono Nerd Font';-inkscape-font-specification:'JetBrainsMono Nerd Font, Normal';font-variant-ligatures:normal;font-variant-caps:normal;font-variant-numeric:normal;font-variant-east-asian:normal;stroke-width:0.264583"
         x="328.75763"
         y="87.609955"
         id="tspan82839-2-6-0-2"><tspan
           style="font-style:normal;font-variant:normal;font-weight:normal;font-stretch:normal;font-size:3.52778px;font-family:'JetBrainsMono Nerd Font';-inkscape-font-specification:'JetBrainsMono Nerd Font, Normal';font-variant-ligatures:normal;font-variant-caps:normal;font-variant-numeric:normal;font-variant-east-asian:normal"
           id="tspan82841-0-4-0-2">(ff02::a1)</tspan></tspan></text>
    <text
       xml:space="preserve"
       style="font-style:normal;font-weight:normal;font-size:10.5833px;line-height:0.35;font-family:sans-serif;fill:#000000;fill-opacity:1;stroke:none;stroke-width:0.264583"
       x="351.49646"
       y="70.710411"
       id="text67680-3-3-1-9-3-9-3-0-0"><tspan
         style="font-style:normal;font-variant:normal;font-weight:normal;font-stretch:normal;font-size:5.64444px;font-family:'JetBrainsMono Nerd Font';-inkscape-font-specification:'JetBrainsMono Nerd Font, Normal';font-variant-ligatures:normal;font-variant-caps:normal;font-variant-numeric:normal;font-variant-east-asian:normal;stroke-width:0.264583"
         x="351.49646"
         y="70.710411"
         id="tspan82832-9-0-1-2">DIO</tspan><tspan
         style="font-style:normal;font-variant:normal;font-weight:normal;font-stretch:normal;font-size:5.64444px;font-family:'JetBrainsMono Nerd Font';-inkscape-font-specification:'JetBrainsMono Nerd Font, Normal';font-variant-ligatures:normal;font-variant-caps:normal;font-variant-numeric:normal;font-variant-east-asian:normal;stroke-width:0.264583"
         x="351.49646"
         y="75.025795"
         id="tspan82839-2-6-0-4"><tspan
           style="font-style:normal;font-variant:normal;font-weight:normal;font-stretch:normal;font-size:3.52778px;font-family:'JetBrainsMono Nerd Font';-inkscape-font-specification:'JetBrainsMono Nerd Font, Normal';font-variant-ligatures:normal;font-variant-caps:normal;font-variant-numeric:normal;font-variant-east-asian:normal"
           id="tspan82841-0-4-0-5">(ff02::a1)</tspan></tspan></text>
    <path
       style="fill:none;stroke:#000000;stroke-width:0.7;stroke-linecap:butt;stroke-linejoin:miter;stroke-dasharray:none;stroke-opacity:1;marker-end:url(#Sketch-5-1-1-3-1_Fnone_S-000000)"
       d="m 340.53663,61.900431 c -10.4861,12.13934 -10.9817,16.849463 -17.30678,24.464875"
       id="path47519-3-5-8-5-0" />
    <path
       style="fill:none;stroke:#000000;stroke-width:0.7;stroke-linecap:butt;stroke-linejoin:miter;stroke-dasharray:none;stroke-opacity:1;marker-end:url(#Sketch-5-1-1-3-1-7_Fnone_S-000000)"
       d="m 340.53663,61.900431 c -10.4861,12.13934 -29.55339,3.222058 -38.50252,-10e-7"
       id="path47519-3-5-8-5-0-3" />
    <path
       style="fill:none;stroke:#000000;stroke-width:0.7;stroke-linecap:butt;stroke-linejoin:miter;stroke-dasharray:none;stroke-opacity:1;marker-end:url(#Sketch-5-1-1-3-1-1_Fnone_S-000000)"
       d="m 340.53663,61.900431 c 15.59138,4.453602 17.6732,4.453602 28.92999,-3.821618"
       id="path47519-3-5-8-5-0-2" />
    <path
       id="path111-5-2-3-1-1"
       style="fill:#ffffff;stroke:#000000;stroke-dasharray:1, 1"
       d="m 327.35137,92.336306 a 6.9544883,6.9544883 0 0 1 -6.95449,6.95449 6.9544883,6.9544883 0 0 1 -6.95449,-6.95449 6.9544883,6.9544883 0 0 1 6.95449,-6.95449 6.9544883,6.9544883 0 0 1 6.95449,6.95449 z" />
    <path
       id="path111-5-2-3-6-0-5"
       style="fill:#ffffff;stroke:#000000;stroke-dasharray:1, 1"
       d="m 382.73916,54.225165 a 6.9544883,6.9544883 0 0 1 -6.95449,6.954488 6.9544883,6.9544883 0 0 1 -6.95449,-6.954488 6.9544883,6.9544883 0 0 1 6.95449,-6.954488 6.9544883,6.9544883 0 0 1 6.95449,6.954488 z" />
    <path
       id="path111-7-0-9"
       style="fill:#bbbbbb;stroke:#000000"
       d="m 347.49112,61.900428 a 6.9544883,6.9544883 0 0 1 -6.95449,6.954492 6.9544883,6.9544883 0 0 1 -6.95449,-6.954492 6.9544883,6.9544883 0 0 1 6.95449,-6.954488 6.9544883,6.9544883 0 0 1 6.95449,6.954488 z" />
    <text
       xml:space="preserve"
       style="font-style:normal;font-weight:normal;font-size:10.5833px;line-height:1.25;font-family:sans-serif;fill:#000000;fill-opacity:1;stroke:none;stroke-width:0.264583"
       x="339.07251"
       y="63.739918"
       id="text67680-1-7"><tspan
         id="tspan67678-33-0"
         style="font-style:normal;font-variant:normal;font-weight:normal;font-stretch:normal;font-size:5.64444px;font-family:'JetBrainsMono Nerd Font';-inkscape-font-specification:'JetBrainsMono Nerd Font, Normal';font-variant-ligatures:normal;font-variant-caps:normal;font-variant-numeric:normal;font-variant-east-asian:normal;stroke-width:0.264583"
         x="339.07251"
         y="63.739918">R</tspan></text>
    <text
       xml:space="preserve"
       style="font-style:normal;font-weight:normal;font-size:10.5833px;line-height:1.25;font-family:sans-serif;fill:#000000;fill-opacity:1;stroke:none;stroke-width:0.264583"
       x="318.62228"
       y="94.396294"
       id="text67680-3-0-6"><tspan
         id="tspan67678-3-0-2"
         style="font-style:normal;font-variant:normal;font-weight:normal;font-stretch:normal;font-size:5.64444px;font-family:'JetBrainsMono Nerd Font';-inkscape-font-specification:'JetBrainsMono Nerd Font, Normal';font-variant-ligatures:normal;font-variant-caps:normal;font-variant-numeric:normal;font-variant-east-asian:normal;stroke-width:0.264583"
         x="318.62228"
         y="94.396294">1</tspan></text>
    <text
       xml:space="preserve"
       style="font-style:normal;font-weight:normal;font-size:10.5833px;line-height:1.25;font-family:sans-serif;fill:#000000;fill-opacity:1;stroke:none;stroke-width:0.264583"
       x="374.09793"
       y="56.313618"
       id="text67680-3-3-0-8"><tspan
         style="font-style:normal;font-variant:normal;font-weight:normal;font-stretch:normal;font-size:5.64444px;font-family:'JetBrainsMono Nerd Font';-inkscape-font-specification:'JetBrainsMono Nerd Font, Normal';font-variant-ligatures:normal;font-variant-caps:normal;font-variant-numeric:normal;font-variant-east-asian:normal;stroke-width:0.264583"
         x="374.09793"
         y="56.313618"
         id="tspan68614-2-9">4</tspan></text>
    <g
       id="g82337-2-5"
       transform="translate(298.81737,-2.2288088)">
      <path
         id="path111-5-2-3-6-2-2-0"
         style="fill:#ffffff;stroke:#000000;stroke-dasharray:1, 1"
         d="m 89.547102,19.75026 a 6.9544883,6.9544883 0 0 1 -6.95449,6.954488 6.9544883,6.9544883 0 0 1 -6.95449,-6.954488 6.9544883,6.9544883 0 0 1 6.95449,-6.954488 6.9544883,6.9544883 0 0 1 6.95449,6.954488 z" />
      <text
         xml:space="preserve"
         style="font-style:normal;font-weight:normal;font-size:10.5833px;line-height:1.25;font-family:sans-serif;fill:#000000;fill-opacity:1;stroke:none;stroke-width:0.264583"
         x="80.905861"
         y="21.838703"
         id="text67680-3-3-4-4-2"><tspan
           style="font-style:normal;font-variant:normal;font-weight:normal;font-stretch:normal;font-size:5.64444px;font-family:'JetBrainsMono Nerd Font';-inkscape-font-specification:'JetBrainsMono Nerd Font, Normal';font-variant-ligatures:normal;font-variant-caps:normal;font-variant-numeric:normal;font-variant-east-asian:normal;stroke-width:0.264583"
           x="80.905861"
           y="21.838703"
           id="tspan68618-7-7">6</tspan></text>
    </g>
    <path
       id="path111-5-2-3-6-4-9-2"
       style="fill:#ffffff;stroke:#000000;stroke-dasharray:1, 1"
       d="m 376.42017,129.02746 a 6.9544883,6.9544883 0 0 1 -6.95449,6.95449 6.9544883,6.9544883 0 0 1 -6.95449,-6.95449 6.9544883,6.9544883 0 0 1 6.95449,-6.95449 6.9544883,6.9544883 0 0 1 6.95449,6.95449 z" />
    <text
       xml:space="preserve"
       style="font-style:normal;font-weight:normal;font-size:10.5833px;line-height:1.25;font-family:sans-serif;fill:#000000;fill-opacity:1;stroke:none;stroke-width:0.264583"
       x="367.77896"
       y="131.11591"
       id="text67680-3-3-9-8-8"><tspan
         id="tspan67678-3-2-9-5-1"
         style="font-style:normal;font-variant:normal;font-weight:normal;font-stretch:normal;font-size:5.64444px;font-family:'JetBrainsMono Nerd Font';-inkscape-font-specification:'JetBrainsMono Nerd Font, Normal';font-variant-ligatures:normal;font-variant-caps:normal;font-variant-numeric:normal;font-variant-east-asian:normal;stroke-width:0.264583"
         x="367.77896"
         y="131.11591">5</tspan></text>
    <g
       id="g82310-4-7"
       transform="translate(163.8272,-37.654002)">
      <path
         id="path111-5-2-3-6-3-7-7"
         style="fill:#ffffff;stroke:#000000;stroke-dasharray:1, 1"
         d="m 138.20691,99.554432 a 6.9544883,6.9544883 0 0 1 -6.95449,6.954488 6.9544883,6.9544883 0 0 1 -6.95449,-6.954488 6.9544883,6.9544883 0 0 1 6.95449,-6.95449 6.9544883,6.9544883 0 0 1 6.95449,6.95449 z" />
      <text
         xml:space="preserve"
         style="font-style:normal;font-weight:normal;font-size:10.5833px;line-height:1.25;font-family:sans-serif;fill:#000000;fill-opacity:1;stroke:none;stroke-width:0.264583"
         x="129.56567"
         y="101.64288"
         id="text67680-3-3-8-8-9"><tspan
           id="tspan67678-3-2-3-6-7"
           style="font-style:normal;font-variant:normal;font-weight:normal;font-stretch:normal;font-size:5.64444px;font-family:'JetBrainsMono Nerd Font';-inkscape-font-specification:'JetBrainsMono Nerd Font, Normal';font-variant-ligatures:normal;font-variant-caps:normal;font-variant-numeric:normal;font-variant-east-asian:normal;stroke-width:0.264583"
           x="129.56567"
           y="101.64288">3</tspan></text>
    </g>
    <path
       id="path111-5-2-3-6-29-0-9"
       style="fill:#ffffff;stroke:#000000;stroke-dasharray:1, 1"
       d="m 335.47612,130.28603 a 6.9544883,6.9544883 0 0 1 -6.95449,6.95449 6.9544883,6.9544883 0 0 1 -6.95449,-6.95449 6.9544883,6.9544883 0 0 1 6.95449,-6.95449 6.9544883,6.9544883 0 0 1 6.95449,6.95449 z" />
    <text
       xml:space="preserve"
       style="font-style:normal;font-weight:normal;font-size:10.5833px;line-height:1.25;font-family:sans-serif;fill:#000000;fill-opacity:1;stroke:none;stroke-width:0.264583"
       x="326.8349"
       y="132.37447"
       id="text67680-3-3-5-0-8"><tspan
         id="tspan67678-3-2-43-6-8"
         style="font-style:normal;font-variant:normal;font-weight:normal;font-stretch:normal;font-size:5.64444px;font-family:'JetBrainsMono Nerd Font';-inkscape-font-specification:'JetBrainsMono Nerd Font, Normal';font-variant-ligatures:normal;font-variant-caps:normal;font-variant-numeric:normal;font-variant-east-asian:normal;stroke-width:0.264583"
         x="326.8349"
         y="132.37447">2</tspan></text>
  </g>
</svg>
