<?xml version="1.0" encoding="UTF-8" standalone="no"?>
<!-- Created with Inkscape (http://www.inkscape.org/) -->

<svg
   width="101.23738mm"
   height="132.09038mm"
   viewBox="0 0 101.23737 132.09038"
   version="1.1"
   id="svg1375"
   xmlns="http://www.w3.org/2000/svg"
   xmlns:svg="http://www.w3.org/2000/svg">
  <defs
     id="defs1372">
    <marker
       style="overflow:visible"
       id="Sketch-5-1-1-3-1-7-7"
       refX="1"
       refY="0"
       orient="auto-start-reverse"
       markerWidth="7.5655537"
       markerHeight="6.7364779"
       viewBox="0 0 7.5655539 6.7364778"
       preserveAspectRatio="xMidYMid">
      <path
         style="fill:none;stroke:context-stroke;stroke-width:0.4;stroke-linecap:round"
         d="m -4.5421538,-3.2452189 3.83900644,2.60235235 0.56348102,0.59255887 L -2.4921466,1.1808717 -4.4106004,2.139946 -4.5795251,2.8245356 -4.703996,3.0734773 -4.3128019,2.6822832 -3.9749524,2.3088707 0.66603196,-0.12720162 0.02589622,-0.32279868 -1.7613224,-0.60366199 -3.580874,-2.0472634 -4.3186004,-2.392437 l -1.2937699,-0.2549423 2.1825172,0.042166 0.6996091,1.0554873 1.4406512,0.1145833 1.20879971,0.91674665 1.53333299,0.47138389 -1.85995289,1.23785256 -2.03832621,0.9224332 -1.5469949,0.9779853"
         id="path22096-7-2-8-8-6-5-8" />
    </marker>
    <marker
       style="overflow:visible"
       id="Sketch-5-1-1-3-1-7-7_Fnone_S-9d00ec"
       refX="1"
       refY="0"
       orient="auto-start-reverse"
       markerWidth="7.5655537"
       markerHeight="6.7364779"
       viewBox="0 0 7.5655539 6.7364778"
       preserveAspectRatio="xMidYMid">
      <path
         style="fill:none;stroke:#9d00ec;stroke-width:0.4;stroke-linecap:round"
         d="m -4.5421538,-3.2452189 3.83900644,2.60235235 0.56348102,0.59255887 L -2.4921466,1.1808717 -4.4106004,2.139946 -4.5795251,2.8245356 -4.703996,3.0734773 -4.3128019,2.6822832 -3.9749524,2.3088707 0.66603196,-0.12720162 0.02589622,-0.32279868 -1.7613224,-0.60366199 -3.580874,-2.0472634 -4.3186004,-2.392437 l -1.2937699,-0.2549423 2.1825172,0.042166 0.6996091,1.0554873 1.4406512,0.1145833 1.20879971,0.91674665 1.53333299,0.47138389 -1.85995289,1.23785256 -2.03832621,0.9224332 -1.5469949,0.9779853"
         id="path28343" />
    </marker>
    <marker
       style="overflow:visible"
       id="Sketch-5-1-1-3-1-7-7-6"
       refX="1"
       refY="0"
       orient="auto-start-reverse"
       markerWidth="7.5655537"
       markerHeight="6.7364779"
       viewBox="0 0 7.5655539 6.7364778"
       preserveAspectRatio="xMidYMid">
      <path
         style="fill:none;stroke:context-stroke;stroke-width:0.4;stroke-linecap:round"
         d="m -4.5421538,-3.2452189 3.83900644,2.60235235 0.56348102,0.59255887 L -2.4921466,1.1808717 -4.4106004,2.139946 -4.5795251,2.8245356 -4.703996,3.0734773 -4.3128019,2.6822832 -3.9749524,2.3088707 0.66603196,-0.12720162 0.02589622,-0.32279868 -1.7613224,-0.60366199 -3.580874,-2.0472634 -4.3186004,-2.392437 l -1.2937699,-0.2549423 2.1825172,0.042166 0.6996091,1.0554873 1.4406512,0.1145833 1.20879971,0.91674665 1.53333299,0.47138389 -1.85995289,1.23785256 -2.03832621,0.9224332 -1.5469949,0.9779853"
         id="path22096-7-2-8-8-6-5-8-8" />
    </marker>
    <marker
       style="overflow:visible"
       id="Sketch-5-1-1-3-1-7-7-6_Fnone_S-b21e00"
       refX="1"
       refY="0"
       orient="auto-start-reverse"
       markerWidth="7.5655537"
       markerHeight="6.7364779"
       viewBox="0 0 7.5655539 6.7364778"
       preserveAspectRatio="xMidYMid">
      <path
         style="fill:none;stroke:#b21e00;stroke-width:0.4;stroke-linecap:round"
         d="m -4.5421538,-3.2452189 3.83900644,2.60235235 0.56348102,0.59255887 L -2.4921466,1.1808717 -4.4106004,2.139946 -4.5795251,2.8245356 -4.703996,3.0734773 -4.3128019,2.6822832 -3.9749524,2.3088707 0.66603196,-0.12720162 0.02589622,-0.32279868 -1.7613224,-0.60366199 -3.580874,-2.0472634 -4.3186004,-2.392437 l -1.2937699,-0.2549423 2.1825172,0.042166 0.6996091,1.0554873 1.4406512,0.1145833 1.20879971,0.91674665 1.53333299,0.47138389 -1.85995289,1.23785256 -2.03832621,0.9224332 -1.5469949,0.9779853"
         id="path28346" />
    </marker>
  </defs>
  <g
     id="layer1"
     transform="translate(-880.01205,-9.8855026)">
    <path
       style="fill:none;stroke:#9d00ec;stroke-width:0.7;stroke-linecap:butt;stroke-linejoin:miter;stroke-dasharray:none;stroke-opacity:1;marker-end:url(#Sketch-5-1-1-3-1-7-7_Fnone_S-9d00ec)"
       d="m 954.16978,129.69553 c -4.558,1.5299 -19.0485,1.78256 -26.53987,-6.00278 -5.6514,-5.8731 -5.4873,-18.1843 -4.3943,-27.472114 1.1208,-9.5241 7.4622,-18.21472 9.2814,-21.61253"
       id="path47519-3-5-8-5-0-3-7" />
    <path
       style="fill:none;stroke:#b21e00;stroke-width:0.7;stroke-linecap:butt;stroke-linejoin:miter;stroke-dasharray:none;stroke-opacity:1;marker-end:url(#Sketch-5-1-1-3-1-7-7-6_Fnone_S-b21e00)"
       d="m 941.38244,67.975319 c 7.13735,-0.08516 9.85944,0.305333 18.68543,-5.098224"
       id="path47519-3-5-8-5-0-3-7-0" />
    <path
       style="fill:none;stroke:#000000;stroke-width:0.7;stroke-linecap:butt;stroke-linejoin:miter;stroke-dasharray:0.21, 0.56;stroke-dashoffset:0;stroke-opacity:1"
       d="m 912.78281,96.571646 20.4724,-30.65662"
       id="path91722-7-03-6" />
    <path
       style="fill:none;stroke:#000000;stroke-width:0.7;stroke-linecap:butt;stroke-linejoin:miter;stroke-dasharray:0.21, 0.56;stroke-dashoffset:0;stroke-opacity:1"
       d="m 920.90761,134.52135 -8.1248,-37.949704"
       id="path91722-7-2-2-5" />
    <path
       style="fill:none;stroke:#000000;stroke-width:0.7;stroke-linecap:butt;stroke-linejoin:miter;stroke-dasharray:0.21, 0.56;stroke-dashoffset:0;stroke-opacity:1"
       d="m 961.85728,133.31923 -40.94967,1.20212"
       id="path91722-7-2-2-6-6" />
    <path
       style="fill:none;stroke:#000000;stroke-width:0.7;stroke-linecap:butt;stroke-linejoin:miter;stroke-dasharray:0.21, 0.56;stroke-dashoffset:0;stroke-opacity:1"
       d="m 968.11978,58.460496 5.6818,-36.64727"
       id="path91722-7-0-8-6" />
    <path
       style="fill:none;stroke:#000000;stroke-width:0.7;stroke-linecap:butt;stroke-linejoin:miter;stroke-dasharray:0.21, 0.56;stroke-dashoffset:0;stroke-opacity:1"
       d="m 887.46557,66.135766 45.78964,-0.22074"
       id="path91722-4-6-7-3" />
    <path
       style="fill:none;stroke:#000000;stroke-width:0.7;stroke-linecap:butt;stroke-linejoin:miter;stroke-dasharray:0.21, 0.56;stroke-dashoffset:0;stroke-opacity:1"
       d="m 933.25521,65.915026 34.86457,-7.45453"
       id="path91722-0-6-4-4" />
    <path
       id="path111-5-2-3-1-1-8-8-6-1"
       style="fill:#ffffff;stroke:#000000;stroke-dasharray:1, 1"
       d="m 919.73641,96.571646 a 6.9544883,6.9544883 0 0 1 -6.9545,6.954474 6.9544883,6.9544883 0 0 1 -6.95454,-6.954474 6.9544883,6.9544883 0 0 1 6.95454,-6.95449 6.9544883,6.9544883 0 0 1 6.9545,6.95449 z" />
    <path
       id="path111-5-2-3-6-0-5-2-7-38-7"
       style="fill:#ffffff;stroke:#000000;stroke-dasharray:1, 1"
       d="m 975.12418,58.460496 a 6.9544883,6.9544883 0 0 1 -6.9545,6.95449 6.9544883,6.9544883 0 0 1 -6.9545,-6.95449 6.9544883,6.9544883 0 0 1 6.9545,-6.95449 6.9544883,6.9544883 0 0 1 6.9545,6.95449 z" />
    <path
       id="path111-7-0-9-8-7-0-1"
       style="fill:#bbbbbb;stroke:#000000"
       d="m 939.87608,66.135766 a 6.9544883,6.9544883 0 0 1 -6.95447,6.95449 6.9544883,6.9544883 0 0 1 -6.9545,-6.95449 6.9544883,6.9544883 0 0 1 6.9545,-6.9545 6.9544883,6.9544883 0 0 1 6.95447,6.9545 z" />
    <text
       xml:space="preserve"
       style="font-style:normal;font-weight:normal;font-size:10.5833px;line-height:1.25;font-family:sans-serif;fill:#000000;fill-opacity:1;stroke:none;stroke-width:0.264583"
       x="931.4574"
       y="67.975319"
       id="text67680-1-7-2-6-4-3"><tspan
         id="tspan67678-33-0-7-6-9-0"
         style="font-style:normal;font-variant:normal;font-weight:normal;font-stretch:normal;font-size:5.64444px;font-family:'JetBrainsMono Nerd Font';-inkscape-font-specification:'JetBrainsMono Nerd Font, Normal';font-variant-ligatures:normal;font-variant-caps:normal;font-variant-numeric:normal;font-variant-east-asian:normal;stroke-width:0.264583"
         x="931.4574"
         y="67.975319">R</tspan></text>
    <text
       xml:space="preserve"
       style="font-style:normal;font-weight:normal;font-size:10.5833px;line-height:1.25;font-family:sans-serif;fill:#000000;fill-opacity:1;stroke:none;stroke-width:0.264583"
       x="911.0072"
       y="98.631691"
       id="text67680-3-0-6-8-5-7-8"><tspan
         id="tspan67678-3-0-2-6-3-9-2"
         style="font-style:normal;font-variant:normal;font-weight:normal;font-stretch:normal;font-size:5.64444px;font-family:'JetBrainsMono Nerd Font';-inkscape-font-specification:'JetBrainsMono Nerd Font, Normal';font-variant-ligatures:normal;font-variant-caps:normal;font-variant-numeric:normal;font-variant-east-asian:normal;stroke-width:0.264583"
         x="911.0072"
         y="98.631691">1</tspan></text>
    <text
       xml:space="preserve"
       style="font-style:normal;font-weight:normal;font-size:10.5833px;line-height:1.25;font-family:sans-serif;fill:#000000;fill-opacity:1;stroke:none;stroke-width:0.264583"
       x="966.48291"
       y="60.548992"
       id="text67680-3-3-0-8-7-7-75-9"><tspan
         style="font-style:normal;font-variant:normal;font-weight:normal;font-stretch:normal;font-size:5.64444px;font-family:'JetBrainsMono Nerd Font';-inkscape-font-specification:'JetBrainsMono Nerd Font, Normal';font-variant-ligatures:normal;font-variant-caps:normal;font-variant-numeric:normal;font-variant-east-asian:normal;stroke-width:0.264583"
         x="966.48291"
         y="60.548992"
         id="tspan68614-2-9-7-6-1-0">4</tspan></text>
    <g
       id="g82337-2-5-0-9-3-1"
       transform="translate(891.20237,2.0065157)">
      <path
         id="path111-5-2-3-6-2-2-0-9-7-7-0"
         style="fill:#ffffff;stroke:#000000;stroke-dasharray:1, 1"
         d="m 89.547102,19.75026 a 6.9544883,6.9544883 0 0 1 -6.95449,6.954488 6.9544883,6.9544883 0 0 1 -6.95449,-6.954488 6.9544883,6.9544883 0 0 1 6.95449,-6.954488 6.9544883,6.9544883 0 0 1 6.95449,6.954488 z" />
      <text
         xml:space="preserve"
         style="font-style:normal;font-weight:normal;font-size:10.5833px;line-height:1.25;font-family:sans-serif;fill:#000000;fill-opacity:1;stroke:none;stroke-width:0.264583"
         x="80.905861"
         y="21.838703"
         id="text67680-3-3-4-4-2-4-26-8-8"><tspan
           style="font-style:normal;font-variant:normal;font-weight:normal;font-stretch:normal;font-size:5.64444px;font-family:'JetBrainsMono Nerd Font';-inkscape-font-specification:'JetBrainsMono Nerd Font, Normal';font-variant-ligatures:normal;font-variant-caps:normal;font-variant-numeric:normal;font-variant-east-asian:normal;stroke-width:0.264583"
           x="80.905861"
           y="21.838703"
           id="tspan68618-7-7-5-4-0-1">6</tspan></text>
    </g>
    <path
       id="path111-5-2-3-6-4-9-2-4-0-9-6"
       style="fill:#ffffff;stroke:#000000;stroke-dasharray:1, 1"
       d="m 968.80518,133.26278 a 6.9544883,6.9544883 0 0 1 -6.9545,6.95449 6.9544883,6.9544883 0 0 1 -6.9545,-6.95449 6.9544883,6.9544883 0 0 1 6.9545,-6.95449 6.9544883,6.9544883 0 0 1 6.9545,6.95449 z" />
    <text
       xml:space="preserve"
       style="font-style:normal;font-weight:normal;font-size:10.5833px;line-height:1.25;font-family:sans-serif;fill:#000000;fill-opacity:1;stroke:none;stroke-width:0.264583"
       x="960.16394"
       y="135.3513"
       id="text67680-3-3-9-8-8-2-7-5-7"><tspan
         id="tspan67678-3-2-9-5-1-2-5-2-8"
         style="font-style:normal;font-variant:normal;font-weight:normal;font-stretch:normal;font-size:5.64444px;font-family:'JetBrainsMono Nerd Font';-inkscape-font-specification:'JetBrainsMono Nerd Font, Normal';font-variant-ligatures:normal;font-variant-caps:normal;font-variant-numeric:normal;font-variant-east-asian:normal;stroke-width:0.264583"
         x="960.16394"
         y="135.3513">5</tspan></text>
    <g
       id="g82310-4-7-3-4-1-8"
       transform="translate(756.21217,-33.418676)">
      <path
         id="path111-5-2-3-6-3-7-7-9-0-3-2"
         style="fill:#ffffff;stroke:#000000;stroke-dasharray:1, 1"
         d="m 138.20691,99.554432 a 6.9544883,6.9544883 0 0 1 -6.95449,6.954488 6.9544883,6.9544883 0 0 1 -6.95449,-6.954488 6.9544883,6.9544883 0 0 1 6.95449,-6.95449 6.9544883,6.9544883 0 0 1 6.95449,6.95449 z" />
      <text
         xml:space="preserve"
         style="font-style:normal;font-weight:normal;font-size:10.5833px;line-height:1.25;font-family:sans-serif;fill:#000000;fill-opacity:1;stroke:none;stroke-width:0.264583"
         x="129.56567"
         y="101.64288"
         id="text67680-3-3-8-8-9-6-1-27-1"><tspan
           id="tspan67678-3-2-3-6-7-5-2-3-3"
           style="font-style:normal;font-variant:normal;font-weight:normal;font-stretch:normal;font-size:5.64444px;font-family:'JetBrainsMono Nerd Font';-inkscape-font-specification:'JetBrainsMono Nerd Font, Normal';font-variant-ligatures:normal;font-variant-caps:normal;font-variant-numeric:normal;font-variant-east-asian:normal;stroke-width:0.264583"
           x="129.56567"
           y="101.64288">3</tspan></text>
    </g>
    <path
       id="path111-5-2-3-6-29-0-9-7-8-3-8"
       style="fill:#ffffff;stroke:#000000;stroke-dasharray:1, 1"
       d="m 927.86111,134.52135 a 6.9544883,6.9544883 0 0 1 -6.9545,6.95449 6.9544883,6.9544883 0 0 1 -6.9545,-6.95449 6.9544883,6.9544883 0 0 1 6.9545,-6.95449 6.9544883,6.9544883 0 0 1 6.9545,6.95449 z" />
    <text
       xml:space="preserve"
       style="font-style:normal;font-weight:normal;font-size:10.5833px;line-height:1.25;font-family:sans-serif;fill:#000000;fill-opacity:1;stroke:none;stroke-width:0.264583"
       x="919.21967"
       y="136.60985"
       id="text67680-3-3-5-0-8-4-0-23-9"><tspan
         id="tspan67678-3-2-43-6-8-3-15-8-3"
         style="font-style:normal;font-variant:normal;font-weight:normal;font-stretch:normal;font-size:5.64444px;font-family:'JetBrainsMono Nerd Font';-inkscape-font-specification:'JetBrainsMono Nerd Font, Normal';font-variant-ligatures:normal;font-variant-caps:normal;font-variant-numeric:normal;font-variant-east-asian:normal;stroke-width:0.264583"
         x="919.21967"
         y="136.60985">2</tspan></text>
    <text
       xml:space="preserve"
       style="font-size:10.5833px;line-height:1.25;font-family:'JetBrainsMono Nerd Font';-inkscape-font-specification:'JetBrainsMono Nerd Font';stroke-width:0.264583"
       x="880.30139"
       y="57.879925"
       id="text98677-4-04-0-5"><tspan
         id="tspan98675-3-5-1-4"
         style="font-style:normal;font-variant:normal;font-weight:normal;font-stretch:normal;font-size:3.52778px;font-family:'JetBrainsMono Nerd Font';-inkscape-font-specification:'JetBrainsMono Nerd Font, Normal';font-variant-ligatures:normal;font-variant-caps:normal;font-variant-numeric:normal;font-variant-east-asian:normal;stroke-width:0.264583"
         x="880.30139"
         y="57.879925">R(512)</tspan></text>
    <text
       xml:space="preserve"
       style="font-size:10.5833px;line-height:1.25;font-family:'JetBrainsMono Nerd Font';-inkscape-font-specification:'JetBrainsMono Nerd Font';stroke-width:0.264583"
       x="905.32922"
       y="87.429909"
       id="text98677-4-0-8-7-1"><tspan
         id="tspan98675-3-9-2-7-2"
         style="font-style:normal;font-variant:normal;font-weight:normal;font-stretch:normal;font-size:3.52778px;font-family:'JetBrainsMono Nerd Font';-inkscape-font-specification:'JetBrainsMono Nerd Font, Normal';font-variant-ligatures:normal;font-variant-caps:normal;font-variant-numeric:normal;font-variant-east-asian:normal;stroke-width:0.264583"
         x="905.32922"
         y="87.429909">R(512)</tspan></text>
    <text
       xml:space="preserve"
       style="font-size:10.5833px;line-height:1.25;font-family:'JetBrainsMono Nerd Font';-inkscape-font-specification:'JetBrainsMono Nerd Font';stroke-width:0.264583"
       x="966.55164"
       y="12.848841"
       id="text98677-4-0-8-8-8-2"><tspan
         id="tspan98675-3-9-2-5-0-7"
         style="font-style:normal;font-variant:normal;font-weight:normal;font-stretch:normal;font-size:3.52778px;font-family:'JetBrainsMono Nerd Font';-inkscape-font-specification:'JetBrainsMono Nerd Font, Normal';font-variant-ligatures:normal;font-variant-caps:normal;font-variant-numeric:normal;font-variant-east-asian:normal;stroke-width:0.264583"
         x="966.55164"
         y="12.848841">R(1024)</tspan></text>
    <text
       xml:space="preserve"
       style="font-size:10.5833px;line-height:1.25;font-family:'JetBrainsMono Nerd Font';-inkscape-font-specification:'JetBrainsMono Nerd Font';stroke-width:0.264583"
       x="954.62317"
       y="124.65113"
       id="text98677-4-0-8-8-8-3-7"><tspan
         id="tspan98675-3-9-2-5-0-9-9"
         style="font-style:normal;font-variant:normal;font-weight:normal;font-stretch:normal;font-size:3.52778px;font-family:'JetBrainsMono Nerd Font';-inkscape-font-specification:'JetBrainsMono Nerd Font, Normal';font-variant-ligatures:normal;font-variant-caps:normal;font-variant-numeric:normal;font-variant-east-asian:normal;stroke-width:0.264583"
         x="954.62317"
         y="124.65113">R(2048)</tspan></text>
    <text
       xml:space="preserve"
       style="font-size:10.5833px;line-height:1.25;font-family:'JetBrainsMono Nerd Font';-inkscape-font-specification:'JetBrainsMono Nerd Font';stroke-width:0.264583"
       x="583.59863"
       y="708.35254"
       id="text98677-4-0-8-8-3-8-1"
       transform="rotate(-42.052764)"><tspan
         id="tspan98675-3-9-2-5-4-9-4"
         style="font-style:normal;font-variant:normal;font-weight:normal;font-stretch:normal;font-size:3.52778px;font-family:'JetBrainsMono Nerd Font';-inkscape-font-specification:'JetBrainsMono Nerd Font, Normal';font-variant-ligatures:normal;font-variant-caps:normal;font-variant-numeric:normal;font-variant-east-asian:normal;stroke-width:0.264583"
         x="583.59863"
         y="708.35254">R(1024)</tspan></text>
    <text
       xml:space="preserve"
       style="font-size:10.5833px;line-height:1.25;font-family:'JetBrainsMono Nerd Font';-inkscape-font-specification:'JetBrainsMono Nerd Font';stroke-width:0.264583"
       x="716.01093"
       y="637.72406"
       id="text98677-4-6-8-7-0"
       transform="rotate(-38.37145)"><tspan
         id="tspan98675-3-6-6-8-4"
         style="font-style:normal;font-variant:normal;font-weight:normal;font-stretch:normal;font-size:3.52778px;font-family:'JetBrainsMono Nerd Font';-inkscape-font-specification:'JetBrainsMono Nerd Font, Normal';font-variant-ligatures:normal;font-variant-caps:normal;font-variant-numeric:normal;font-variant-east-asian:normal;stroke-width:0.264583"
         x="716.01093"
         y="637.72406">R(512)</tspan></text>
    <text
       xml:space="preserve"
       style="font-size:10.5833px;line-height:1.25;font-family:'JetBrainsMono Nerd Font';-inkscape-font-specification:'JetBrainsMono Nerd Font';fill:#b21e00;fill-opacity:1;stroke:none;stroke-width:0.264583;stroke-opacity:1"
       x="949.0036"
       y="69.253609"
       id="text101999"><tspan
         id="tspan101997"
         style="font-style:normal;font-variant:normal;font-weight:normal;font-stretch:normal;font-size:7.05556px;font-family:'JetBrainsMono Nerd Font';-inkscape-font-specification:'JetBrainsMono Nerd Font, Normal';font-variant-ligatures:normal;font-variant-caps:normal;font-variant-numeric:normal;font-variant-east-asian:normal;fill:#b21e00;fill-opacity:1;stroke:none;stroke-width:0.264583;stroke-opacity:1"
         x="949.0036"
         y="69.253609">x</tspan></text>
  </g>
</svg>
