<?xml version="1.0" encoding="UTF-8" standalone="no"?>
<!DOCTYPE svg PUBLIC "-//W3C//DTD SVG 1.1//EN"
 "http://www.w3.org/Graphics/SVG/1.1/DTD/svg11.dtd">
<!-- Generated by graphviz version 2.50.0 (0)
 -->
<!-- Title: RPL Pages: 1 -->
<svg width="364pt" height="291pt"
 viewBox="0.00 0.00 364.00 291.00" xmlns="http://www.w3.org/2000/svg" xmlns:xlink="http://www.w3.org/1999/xlink">
<g id="graph0" class="graph" transform="scale(1 1) rotate(0) translate(4 287)">
<title>RPL</title>
<!-- l1 -->
<g id="node1" class="node">
<title>l1</title>
<ellipse fill="lightgray" stroke="black" cx="174" cy="-265" rx="27" ry="18"/>
<text text-anchor="middle" x="174" y="-261.3" font-family="JetBrainsMono Nerd Font" font-size="14.00">R</text>
</g>
<!-- l21 -->
<g id="node2" class="node">
<title>l21</title>
<ellipse fill="none" stroke="black" cx="152" cy="-178" rx="27" ry="18"/>
<text text-anchor="middle" x="152" y="-174.3" font-family="JetBrainsMono Nerd Font" font-size="14.00">1</text>
</g>
<!-- l1&#45;&gt;l21 -->
<g id="edge5" class="edge">
<title>l1&#45;&gt;l21</title>
<path fill="none" stroke="blue" stroke-dasharray="5,2" d="M150.88,-255.63C139.08,-250.04 125.81,-241.4 119,-229 113.37,-218.74 119.06,-207.84 127.21,-198.85"/>
<polygon fill="blue" stroke="blue" points="129.73,-201.29 134.44,-191.8 124.84,-196.28 129.73,-201.29"/>
<text text-anchor="middle" x="131.5" y="-217.8" font-family="JetBrainsMono Nerd Font" font-size="14.00">DIO</text>
</g>
<!-- l1&#45;&gt;l21 -->
<g id="edge9" class="edge">
<title>l1&#45;&gt;l21</title>
<path fill="none" stroke="black" d="M169.65,-247.21C165.82,-232.4 160.26,-210.93 156.41,-196.05"/>
</g>
<!-- l22 -->
<g id="node3" class="node">
<title>l22</title>
<ellipse fill="none" stroke="black" cx="249" cy="-178" rx="27" ry="18"/>
<text text-anchor="middle" x="249" y="-174.3" font-family="JetBrainsMono Nerd Font" font-size="14.00">2</text>
</g>
<!-- l1&#45;&gt;l22 -->
<g id="edge10" class="edge">
<title>l1&#45;&gt;l22</title>
<path fill="none" stroke="black" d="M187.06,-249.19C200.75,-233.69 222.11,-209.47 235.83,-193.92"/>
</g>
<!-- l21&#45;&gt;l1 -->
<g id="edge1" class="edge">
<title>l21&#45;&gt;l1</title>
<path fill="none" stroke="red" stroke-dasharray="5,2" d="M161.37,-195.26C164.28,-201.01 167.2,-207.63 169,-214 171.04,-221.19 172.27,-229.16 173.01,-236.59"/>
<polygon fill="red" stroke="red" points="169.52,-236.89 173.76,-246.6 176.5,-236.36 169.52,-236.89"/>
<text text-anchor="middle" x="185.5" y="-217.8" font-family="JetBrainsMono Nerd Font" font-size="14.00">DIS</text>
</g>
<!-- l21&#45;&gt;l22 -->
<g id="edge2" class="edge">
<title>l21&#45;&gt;l22</title>
<path fill="none" stroke="red" stroke-dasharray="5,2" d="M179.02,-178C189.13,-178 200.8,-178 211.68,-178"/>
<polygon fill="red" stroke="red" points="211.79,-181.5 221.79,-178 211.79,-174.5 211.79,-181.5"/>
<text text-anchor="middle" x="200.5" y="-184.8" font-family="JetBrainsMono Nerd Font" font-size="14.00">DIS</text>
</g>
<!-- l31 -->
<g id="node4" class="node">
<title>l31</title>
<ellipse fill="none" stroke="black" cx="63" cy="-91" rx="27" ry="18"/>
<text text-anchor="middle" x="63" y="-87.3" font-family="JetBrainsMono Nerd Font" font-size="14.00">3</text>
</g>
<!-- l21&#45;&gt;l31 -->
<g id="edge3" class="edge">
<title>l21&#45;&gt;l31</title>
<path fill="none" stroke="red" stroke-dasharray="5,2" d="M125.63,-173.56C91.87,-168.56 36.27,-158.07 24,-142 15.81,-131.26 24.42,-119.33 35.62,-109.82"/>
<polygon fill="red" stroke="red" points="37.82,-112.54 43.61,-103.67 33.55,-107 37.82,-112.54"/>
<text text-anchor="middle" x="36.5" y="-130.8" font-family="JetBrainsMono Nerd Font" font-size="14.00">DIS</text>
</g>
<!-- l21&#45;&gt;l31 -->
<g id="edge11" class="edge">
<title>l21&#45;&gt;l31</title>
<path fill="none" stroke="black" d="M130.64,-166.87C119.19,-160.75 105.36,-152.17 95,-142 85.14,-132.33 76.84,-119.08 71.16,-108.65"/>
</g>
<!-- l32 -->
<g id="node5" class="node">
<title>l32</title>
<ellipse fill="none" stroke="black" cx="184" cy="-91" rx="27" ry="18"/>
<text text-anchor="middle" x="184" y="-87.3" font-family="JetBrainsMono Nerd Font" font-size="14.00">4</text>
</g>
<!-- l21&#45;&gt;l32 -->
<g id="edge4" class="edge">
<title>l21&#45;&gt;l32</title>
<path fill="none" stroke="red" stroke-dasharray="5,2" d="M145.21,-160.15C142.23,-150.14 140.36,-137.41 145,-127 147.72,-120.89 152.1,-115.41 156.95,-110.69"/>
<polygon fill="red" stroke="red" points="159.51,-113.11 164.8,-103.93 154.94,-107.8 159.51,-113.11"/>
<text text-anchor="middle" x="157.5" y="-130.8" font-family="JetBrainsMono Nerd Font" font-size="14.00">DIS</text>
</g>
<!-- l21&#45;&gt;l32 -->
<g id="edge12" class="edge">
<title>l21&#45;&gt;l32</title>
<path fill="none" stroke="black" d="M161.13,-160.94C164.21,-155.09 167.5,-148.36 170,-142 174.22,-131.26 177.72,-118.76 180.16,-108.94"/>
</g>
<!-- l22&#45;&gt;l21 -->
<g id="edge6" class="edge">
<title>l22&#45;&gt;l21</title>
<path fill="none" stroke="blue" stroke-dasharray="5,2" d="M228.68,-165.81C223.72,-163.41 218.3,-161.25 213,-160 202.19,-157.45 198.81,-157.45 188,-160 186.01,-160.47 184.01,-161.07 182.02,-161.76"/>
<polygon fill="blue" stroke="blue" points="180.19,-158.72 172.32,-165.81 182.89,-165.18 180.19,-158.72"/>
<text text-anchor="middle" x="200.5" y="-163.8" font-family="JetBrainsMono Nerd Font" font-size="14.00">DIO</text>
</g>
<!-- l33 -->
<g id="node6" class="node">
<title>l33</title>
<ellipse fill="none" stroke="black" cx="257" cy="-91" rx="27" ry="18"/>
<text text-anchor="middle" x="257" y="-87.3" font-family="JetBrainsMono Nerd Font" font-size="14.00">5</text>
</g>
<!-- l22&#45;&gt;l33 -->
<g id="edge13" class="edge">
<title>l22&#45;&gt;l33</title>
<path fill="none" stroke="black" d="M250.62,-159.8C252.01,-145.05 254,-123.92 255.38,-109.18"/>
</g>
<!-- l34 -->
<g id="node7" class="node">
<title>l34</title>
<ellipse fill="none" stroke="black" cx="329" cy="-91" rx="27" ry="18"/>
<text text-anchor="middle" x="329" y="-87.3" font-family="JetBrainsMono Nerd Font" font-size="14.00">6</text>
</g>
<!-- l22&#45;&gt;l34 -->
<g id="edge14" class="edge">
<title>l22&#45;&gt;l34</title>
<path fill="none" stroke="black" d="M262.93,-162.19C277.62,-146.59 300.6,-122.17 315.22,-106.64"/>
</g>
<!-- l31&#45;&gt;l21 -->
<g id="edge7" class="edge">
<title>l31&#45;&gt;l21</title>
<path fill="none" stroke="blue" stroke-dasharray="5,2" d="M77.61,-106.56C87.75,-116.6 101.6,-130.21 114,-142 118.86,-146.62 124.13,-151.53 129.15,-156.17"/>
<polygon fill="blue" stroke="blue" points="127.01,-158.95 136.74,-163.14 131.74,-153.8 127.01,-158.95"/>
<text text-anchor="middle" x="126.5" y="-130.8" font-family="JetBrainsMono Nerd Font" font-size="14.00">DIO</text>
</g>
<!-- l41 -->
<g id="node8" class="node">
<title>l41</title>
<ellipse fill="none" stroke="black" cx="27" cy="-18" rx="27" ry="18"/>
<text text-anchor="middle" x="27" y="-14.3" font-family="JetBrainsMono Nerd Font" font-size="14.00">7</text>
</g>
<!-- l31&#45;&gt;l41 -->
<g id="edge15" class="edge">
<title>l31&#45;&gt;l41</title>
<path fill="none" stroke="black" d="M54.65,-73.53C48.83,-62.06 41.11,-46.83 35.3,-35.38"/>
</g>
<!-- l42 -->
<g id="node9" class="node">
<title>l42</title>
<ellipse fill="none" stroke="black" cx="99" cy="-18" rx="27" ry="18"/>
<text text-anchor="middle" x="99" y="-14.3" font-family="JetBrainsMono Nerd Font" font-size="14.00">8</text>
</g>
<!-- l31&#45;&gt;l42 -->
<g id="edge16" class="edge">
<title>l31&#45;&gt;l42</title>
<path fill="none" stroke="black" d="M71.35,-73.53C77.17,-62.06 84.89,-46.83 90.7,-35.38"/>
</g>
<!-- l32&#45;&gt;l21 -->
<g id="edge8" class="edge">
<title>l32&#45;&gt;l21</title>
<path fill="none" stroke="blue" stroke-dasharray="5,2" d="M192.79,-108.37C196.96,-118.44 200.04,-131.4 195,-142 191.76,-148.81 186.47,-154.74 180.7,-159.67"/>
<polygon fill="blue" stroke="blue" points="178.5,-156.95 172.66,-165.79 182.74,-162.52 178.5,-156.95"/>
<text text-anchor="middle" x="210.5" y="-130.8" font-family="JetBrainsMono Nerd Font" font-size="14.00">DIO</text>
</g>
</g>
</svg>
